<svg width="12" height="16" viewBox="0 0 12 16" fill="none" xmlns="http://www.w3.org/2000/svg">
<path d="M11.8153 13.1457V12.9965C11.8153 12.5488 11.3385 11.952 10.8617 11.6536L9.27243 10.7583C8.79565 10.4599 8.15994 10.6091 7.68315 10.7583L6.88852 11.2059C4.66353 10.1615 3.23318 8.0725 3.07425 5.68511L3.86889 5.23747C4.34567 4.93905 4.66353 4.3422 4.66353 3.89457V2.10403C4.66353 1.65639 4.34567 1.05954 3.86889 0.761121L3.55104 0.611909C3.23318 0.462697 2.43854 0.462697 1.96176 0.611909L0.849269 1.35797C0.690341 1.50718 0.372486 1.95481 0.372486 1.95481C-0.422151 4.78984 0.0546313 7.92328 1.80283 10.3107C3.39211 12.8473 6.09388 14.6378 9.1135 15.2347C9.1135 15.2347 9.59028 15.2347 9.90814 15.0854L11.1796 14.4886C11.4974 14.1902 11.8153 13.5933 11.8153 13.1457Z" fill="#F47D39"/>
</svg>
