<svg width="79" height="48" viewBox="0 0 79 48" fill="none" xmlns="http://www.w3.org/2000/svg">
<g clip-path="url(#clip0)">
<path d="M3.31823 27.6172C2.27443 28.343 0.84761 26.7088 1.85891 25.8778C21.4086 9.12023 48.6079 9.48055 71.4278 18.8011C71.0502 17.765 70.6726 16.7289 70.4528 15.6441C70.2005 14.4541 71.7132 13.0071 72.7671 14.1802C74.0075 15.5837 74.8431 17.1699 75.7113 18.8614C76.4619 20.3586 77.727 22.2156 77.1134 23.9612C76.5726 25.5691 74.8525 26.158 73.4443 26.8234C71.3683 27.7527 69.3085 28.7346 67.2364 29.4899C63.9704 30.6714 62.7021 25.8184 65.6765 24.4388C66.8379 23.9072 68.0318 23.4808 69.2257 23.0545C47.7947 13.939 23.0862 14.3655 3.31823 27.6172Z" fill="#EAEBEE"/>
</g>
<defs>
<clipPath id="clip0">
<rect width="73.6255" height="27.2585" fill="white" transform="matrix(-0.955472 0.295082 0.295082 0.955472 70.3472 0)"/>
</clipPath>
</defs>
</svg>
