<svg width="70" height="49" viewBox="0 0 70 49" fill="none" xmlns="http://www.w3.org/2000/svg">
<path d="M67.9629 8.56806C47.9379 6.76227 27.7253 7.04008 7.6534 8.33655L7.70029 8.29025C8.73203 7.04008 9.76376 5.78992 10.7955 4.53975C12.9059 1.99312 9.201 -1.71107 7.09064 0.881865C5.58993 2.73396 4.08923 4.53975 2.58852 6.39185C1.3692 7.87353 -0.1315 9.40151 0.00918579 11.4388C0.196777 13.4761 1.97886 14.7263 3.47956 15.9301C5.26165 17.3655 7.18443 18.5231 9.01341 19.9121C10.2796 20.8845 11.4052 18.9398 10.6079 17.8748C9.71687 16.7636 8.91962 15.5597 8.02858 14.4485C7.79409 14.1243 7.51271 13.8002 7.27822 13.4761C27.4439 11.624 47.7034 11.2073 67.9629 11.1147C69.6043 11.0221 69.5574 8.70697 67.9629 8.56806Z" fill="#EAEBEE"/>
<path d="M1.21352 40.4319C21.2385 42.2377 41.4511 41.9599 61.5231 40.6634L61.4762 40.7098C60.4444 41.9599 59.4127 43.2101 58.381 44.4602C56.2706 47.0069 59.9755 50.7111 62.0858 48.1181C63.5865 46.266 65.0872 44.4602 66.5879 42.6081C67.8073 41.1265 69.308 39.5985 69.1673 37.5612C68.9797 35.5239 67.1976 34.2737 65.6969 33.0699C63.9148 31.6345 61.992 30.4769 60.163 29.0879C58.8968 28.1155 57.7713 30.0602 58.5685 31.1252C59.4596 32.2364 60.2568 33.4403 61.1479 34.5515C61.3824 34.8757 61.6637 35.1998 61.8982 35.5239C41.7325 37.376 21.473 37.7927 1.21352 37.8853C-0.427871 37.9779 -0.380974 40.293 1.21352 40.4319Z" fill="#EAEBEE"/>
</svg>
