<svg width="79" height="48" viewBox="0 0 79 48" fill="none" xmlns="http://www.w3.org/2000/svg">
<g clip-path="url(#clip0)">
<path d="M75.0725 20.1533C76.1163 19.4275 77.5431 21.0617 76.5318 21.8927C56.9821 38.6503 29.7828 38.29 6.96291 28.9694C7.34052 30.0055 7.71812 31.0416 7.93788 32.1264C8.19014 33.3164 6.67745 34.7634 5.62357 33.5904C4.38322 32.1868 3.54754 30.6006 2.67937 28.9091C1.9288 27.4119 0.663683 25.5549 1.27726 23.8093C1.8181 22.2014 3.53817 21.6125 4.94641 20.9471C7.02241 20.0178 9.08215 19.0359 11.1543 18.2806C14.4203 17.0991 15.6886 21.9521 12.7142 23.3318C11.5528 23.8633 10.3589 24.2897 9.165 24.716C30.596 33.8315 55.3045 33.405 75.0725 20.1533Z" fill="#EAEBEE"/>
</g>
<defs>
<clipPath id="clip0">
<rect width="73.6255" height="27.2585" fill="white" transform="matrix(0.955472 -0.295082 -0.295082 -0.955472 8.04346 47.7705)"/>
</clipPath>
</defs>
</svg>
