<svg width="21" height="70" viewBox="0 0 21 70" fill="none" xmlns="http://www.w3.org/2000/svg">
<path d="M11.6085 67.963C13.4142 47.938 13.1364 27.7254 11.84 7.65346L11.8863 7.70035C13.1364 8.73209 14.3866 9.76382 15.6368 10.7956C18.1834 12.9059 21.8876 9.20106 19.2946 7.0907C17.4426 5.58999 15.6368 4.08929 13.7847 2.58858C12.303 1.36926 10.775 -0.131439 8.7377 0.00924683C6.7004 0.196838 5.45023 1.97892 4.24637 3.47962C2.811 5.26171 1.65344 7.18449 0.264366 9.01347C-0.707985 10.2797 1.23672 11.4052 2.30167 10.608C3.41293 9.71693 4.61679 8.91968 5.72805 8.02864C6.05216 7.79415 6.37628 7.51277 6.7004 7.27828C8.55249 27.444 8.96921 47.7035 9.06182 67.963C9.15442 69.6044 11.4695 69.5575 11.6085 67.963Z" fill="#EAEBEE"/>
</svg>
