<svg width="49" height="70" viewBox="0 0 49 70" fill="none" xmlns="http://www.w3.org/2000/svg">
<path d="M40.432 68.3746C42.2378 48.3496 41.9599 28.137 40.6635 8.06508L40.7098 8.11197C41.9599 9.14371 43.2101 10.1754 44.4603 11.2072C47.0069 13.3175 50.7111 9.61268 48.1182 7.50232C46.2661 6.00161 44.4603 4.50091 42.6082 3.00021C41.1265 1.78088 39.5985 0.280182 37.5612 0.420868C35.5239 0.608459 34.2738 2.39054 33.0699 3.89124C31.6345 5.67333 30.477 7.59611 29.0879 9.42509C28.1155 10.6913 30.0602 11.8168 31.1252 11.0196C32.2364 10.1285 33.4403 9.3313 34.5516 8.44026C34.8757 8.20577 35.1998 7.92439 35.5239 7.6899C37.376 27.8556 37.7927 48.1151 37.8853 68.3746C37.9779 70.016 40.2931 69.9691 40.432 68.3746Z" fill="#EAEBEE"/>
<path d="M8.56803 1.62514C6.76224 21.6502 7.04005 41.8628 8.33652 61.9347L8.29022 61.8878C7.04005 60.856 5.78989 59.8243 4.53972 58.7926C1.99309 56.6822 -1.7111 60.3871 0.881834 62.4974C2.73393 63.9981 4.53972 65.4988 6.39182 66.9995C7.8735 68.2189 9.40147 69.7196 11.4388 69.5789C13.4761 69.3913 14.7262 67.6092 15.9301 66.1085C17.3655 64.3264 18.523 62.4036 19.9121 60.5747C20.8845 59.3084 18.9398 58.1829 17.8748 58.9802C16.7636 59.8712 15.5597 60.6685 14.4484 61.5595C14.1243 61.794 13.8002 62.0754 13.4761 62.3099C11.624 42.1441 11.2073 21.8846 11.1147 1.62514C11.0221 -0.0162502 8.70694 0.0306468 8.56803 1.62514Z" fill="#EAEBEE"/>
</svg>
