<svg width="79" height="48" viewBox="0 0 79 48" fill="none" xmlns="http://www.w3.org/2000/svg">
<g clip-path="url(#clip0)">
<path d="M75.0725 27.6172C76.1163 28.343 77.5431 26.7088 76.5318 25.8778C56.9821 9.12023 29.7828 9.48055 6.96291 18.8011C7.34052 17.765 7.71812 16.7289 7.93788 15.6441C8.19014 14.4541 6.67745 13.0071 5.62357 14.1802C4.38322 15.5837 3.54754 17.1699 2.67937 18.8614C1.9288 20.3586 0.663683 22.2156 1.27726 23.9612C1.8181 25.5691 3.53817 26.158 4.94641 26.8234C7.02241 27.7527 9.08215 28.7346 11.1543 29.4899C14.4203 30.6714 15.6886 25.8184 12.7142 24.4388C11.5528 23.9072 10.3589 23.4808 9.165 23.0545C30.596 13.939 55.3045 14.3655 75.0725 27.6172Z" fill="#EAEBEE"/>
</g>
<defs>
<clipPath id="clip0">
<rect width="73.6255" height="27.2585" fill="white" transform="translate(8.04352) rotate(17.1625)"/>
</clipPath>
</defs>
</svg>
