<svg width="79" height="48" viewBox="0 0 79 48" fill="none" xmlns="http://www.w3.org/2000/svg">
<g clip-path="url(#clip0)">
<path d="M3.31823 20.3828C2.27443 19.657 0.847603 21.2912 1.8589 22.1222C21.4086 38.8798 48.6079 38.5195 71.4278 29.1989C71.0502 30.235 70.6726 31.2711 70.4528 32.3559C70.2005 33.5459 71.7132 34.9929 72.7671 33.8198C74.0075 32.4163 74.8431 30.8301 75.7113 29.1386C76.4619 27.6414 77.727 25.7844 77.1134 24.0388C76.5726 22.4309 74.8525 21.842 73.4443 21.1766C71.3683 20.2473 69.3085 19.2654 67.2364 18.5101C63.9704 17.3286 62.7021 22.1816 65.6765 23.5612C66.8379 24.0928 68.0318 24.5192 69.2257 24.9455C47.7947 34.061 23.0862 33.6345 3.31823 20.3828Z" fill="#EAEBEE"/>
</g>
<defs>
<clipPath id="clip0">
<rect width="73.6255" height="27.2585" fill="white" transform="translate(70.3472 48) rotate(-162.838)"/>
</clipPath>
</defs>
</svg>
