<svg width="18" height="18" viewBox="0 0 18 18" fill="none" xmlns="http://www.w3.org/2000/svg">
<path d="M12 7.27026H14V9.06318H12V7.27026ZM8 7.27026H10V9.06318H8V7.27026ZM4 7.27026H6V9.06318H4V7.27026ZM2 1.92427H3V0.131348H5V1.92427H13V0.131348H15V1.92427H16C17.11 1.92427 18 2.73109 18 3.7172V15.3384C18 15.8139 17.7893 16.27 17.4142 16.6062C17.0391 16.9425 16.5304 17.1313 16 17.1313H2C1.46957 17.1313 0.960859 16.9425 0.585785 16.6062C0.210712 16.27 0 15.8139 0 15.3384V3.7172C0 3.24169 0.210712 2.78565 0.585785 2.44941C0.960859 2.11317 1.46957 1.92427 2 1.92427ZM2 15.3384H16V5.47733H2V15.3384Z" fill="#F47D39"/>
</svg>
