<svg width="15" height="15" viewBox="0 0 15 15" fill="none" xmlns="http://www.w3.org/2000/svg">
<g clip-path="url(#clip0)">
<path d="M7.5 0C3.3 0 0 3.3 0 7.5C0 11.7 3.3 15 7.5 15C11.7 15 15 11.7 15 7.5C15 3.3 11.6 0 7.5 0ZM10.7 11.4C10.5 11.6 10.2 11.7 9.9 11.7C9.6 11.7 9.3 11.6 9 11.3L6.4 8.6C6.2 8.4 6.1 8.1 6.1 7.8V3.7C6.1 3 6.6 2.5 7.3 2.5C8 2.5 8.5 3 8.5 3.7V7.3L10.8 9.7C11.2 10.2 11.2 10.9 10.7 11.4Z" fill="#F47D39"/>
</g>
<defs>
<clipPath id="clip0">
<rect width="14.9" height="14.9" fill="white"/>
</clipPath>
</defs>
</svg>
