<svg width="15" height="15" viewBox="0 0 15 15" fill="none" xmlns="http://www.w3.org/2000/svg">
<path d="M4.64711 14.4203C4.32918 14.2656 4.2497 13.9563 4.2497 13.6469C4.2497 13.2602 4.2497 12.8736 4.2497 12.4869C4.2497 12.3322 4.2497 12.2549 4.09073 12.2549C2.42159 11.7136 1.54728 10.5535 1.22934 8.9295C0.911411 7.30547 0.911411 5.6041 1.30883 3.98007C1.70624 2.20137 2.89849 1.27335 4.64711 0.886674C5.75988 0.577335 6.87264 0.5 8.06488 0.5C9.09816 0.577335 10.1314 0.65467 11.0852 0.964009C12.039 1.27335 12.9133 1.73736 13.4697 2.66538C13.8671 3.36139 14.1056 4.0574 14.1851 4.83075C14.4235 6.22278 14.344 7.69214 14.1056 9.08417C13.7877 10.7855 12.7544 11.9456 11.0058 12.4096C9.73403 12.7189 8.38282 12.8736 7.0316 12.7962C6.63419 12.7962 6.47522 12.8736 6.23677 13.1056C5.91884 13.4149 5.68039 13.8016 5.36246 14.1109C5.20349 14.2656 5.04453 14.3429 4.88556 14.4976C4.7266 14.4203 4.7266 14.4203 4.64711 14.4203ZM4.64711 13.9563C4.64711 13.9563 4.7266 13.9563 4.64711 13.9563C4.80608 13.8789 4.88556 13.8016 4.96505 13.7243C5.52143 13.1829 5.99832 12.5642 6.55471 12.0229C6.63419 11.9456 6.79316 11.8682 6.87264 11.8682C8.14437 11.8682 9.33661 11.7909 10.6083 11.4815C11.7211 11.1722 12.5159 10.4762 12.9133 9.39351C13.0723 8.85216 13.1518 8.23348 13.2313 7.61481C13.3108 6.53212 13.3108 5.44943 13.0723 4.36674C12.7544 3.12938 12.039 2.2787 10.7673 1.89203C10.052 1.66002 9.33661 1.58269 8.62127 1.50535C7.42902 1.42802 6.23677 1.42802 5.04453 1.73736C3.61383 2.0467 2.58055 2.89738 2.26262 4.28941C1.94469 5.75877 1.86521 7.22813 2.18314 8.69749C2.42159 10.0122 3.21642 11.0175 4.56763 11.4042C4.64711 11.4042 4.7266 11.5589 4.7266 11.6362C4.7266 12.1776 4.7266 12.6416 4.7266 13.1829C4.64711 13.4149 4.64711 13.6469 4.64711 13.9563Z" fill="#8C44B1" stroke="#8C44B1" stroke-width="0.25" stroke-miterlimit="10"/>
<path d="M6.0214 5.19978L6.01112 5.20728L6.00123 5.2153C5.74046 5.42674 5.49765 5.68037 5.43583 6.04126C5.39446 6.28277 5.44654 6.51525 5.52242 6.72541C5.13815 6.16917 4.81677 5.55612 4.55715 4.88251L4.54754 4.85757L4.53532 4.8338C4.52653 4.81668 4.51763 4.79278 4.49857 4.70933C4.49647 4.70014 4.49425 4.69025 4.49189 4.67972C4.48144 4.63312 4.46816 4.5739 4.44973 4.50624C4.57356 4.40882 4.69373 4.3065 4.80512 4.21167L4.81214 4.20569C4.93066 4.10479 5.03978 4.01207 5.14508 3.92924C5.14575 3.92969 5.14643 3.93014 5.14709 3.9306C5.27311 4.10924 5.40995 4.27927 5.53301 4.43218C5.56887 4.47673 5.60356 4.51984 5.63646 4.56127C5.80243 4.77025 5.93505 4.95068 6.03038 5.13619C6.03823 5.15147 6.04504 5.16518 6.05093 5.17753C6.04217 5.18436 6.03237 5.19177 6.0214 5.19978ZM9.45335 9.82711C8.70577 9.50277 8.03382 9.12346 7.43608 8.68456C7.54127 8.72427 7.65086 8.7596 7.76506 8.79033C7.92112 8.83957 8.12431 8.87968 8.34063 8.84142C8.58415 8.79834 8.79991 8.66341 8.95412 8.43834L8.96397 8.42396L8.9728 8.40893C9.0307 8.31035 9.07629 8.2643 9.10205 8.24438C9.12155 8.22931 9.12964 8.22863 9.13366 8.2283C9.13386 8.22828 9.13405 8.22827 9.13424 8.22825C9.16115 8.22575 9.2741 8.23598 9.52351 8.4085L9.99555 8.75296L10.44 9.07732C10.4435 9.08101 10.4466 9.08439 10.4493 9.08749C10.3343 9.41497 10.1174 9.6829 9.71032 9.85546C9.7005 9.85533 9.68534 9.85461 9.6631 9.85245C9.6359 9.8498 9.61188 9.84661 9.58045 9.84242C9.56606 9.84051 9.55013 9.83839 9.53162 9.83602C9.50979 9.83323 9.48302 9.82991 9.45335 9.82711Z" fill="#8C44B1" stroke="#8C44B1"/>
<mask id="path-3-inside-1" fill="white">
<path d="M7.50781 3.51615C8.46161 3.43882 9.25644 3.82549 9.8923 4.44417C10.5282 5.14018 10.6871 5.91353 10.6871 6.84155C10.6077 4.83085 9.57437 3.67082 7.50781 3.51615Z"/>
</mask>
<path d="M7.50781 3.51615C8.46161 3.43882 9.25644 3.82549 9.8923 4.44417C10.5282 5.14018 10.6871 5.91353 10.6871 6.84155C10.6077 4.83085 9.57437 3.67082 7.50781 3.51615Z" fill="#8C44B1"/>
<path d="M7.50781 3.51615L7.427 2.51942L7.43318 4.51336L7.50781 3.51615ZM9.8923 4.44417L10.6306 3.76969L10.6107 3.74796L10.5897 3.72745L9.8923 4.44417ZM10.6871 6.84155L9.68791 6.88105L11.6871 6.84155H10.6871ZM7.58863 4.51288C8.19014 4.46411 8.7144 4.69334 9.19495 5.1609L10.5897 3.72745C9.79848 2.95765 8.73307 2.41353 7.427 2.51942L7.58863 4.51288ZM9.15402 5.11866C9.55397 5.55644 9.68713 6.04061 9.68713 6.84155H11.6871C11.6871 5.78645 11.5024 4.72393 10.6306 3.76969L9.15402 5.11866ZM11.6864 6.80205C11.6404 5.63933 11.3122 4.58683 10.5716 3.79825C9.82698 3.00546 8.78769 2.60915 7.58245 2.51894L7.43318 4.51336C8.29449 4.57783 8.80512 4.83887 9.1137 5.16743C9.42623 5.5002 9.65439 6.03307 9.68791 6.88105L11.6864 6.80205Z" fill="#8C44B1" mask="url(#path-3-inside-1)"/>
<mask id="path-5-inside-2" fill="white">
<path d="M7.74805 4.36607C8.06598 4.2114 8.86081 4.44341 9.33771 4.83008C9.81461 5.29409 10.0531 6.06744 9.89409 6.53145C9.81461 5.21676 9.09926 4.52074 7.74805 4.36607Z"/>
</mask>
<path d="M7.74805 4.36607C8.06598 4.2114 8.86081 4.44341 9.33771 4.83008C9.81461 5.29409 10.0531 6.06744 9.89409 6.53145C9.81461 5.21676 9.09926 4.52074 7.74805 4.36607Z" fill="#8C44B1"/>
<path d="M7.74805 4.36607L7.31058 3.46684L4.22267 4.96906L7.63432 5.35959L7.74805 4.36607ZM9.33771 4.83008L10.0351 4.11336L10.0026 4.08181L9.96751 4.05333L9.33771 4.83008ZM9.89409 6.53145L8.89591 6.5918L10.8401 6.85555L9.89409 6.53145ZM8.18551 5.26531C8.11037 5.30186 8.05294 5.3123 8.03166 5.31538C8.00863 5.31872 8.00201 5.31715 8.01585 5.31781C8.04566 5.31923 8.11012 5.32789 8.20307 5.35502C8.39618 5.41138 8.5895 5.51083 8.70791 5.60684L9.96751 4.05333C9.60902 3.76266 9.16647 3.55277 8.76346 3.43513C8.55835 3.37526 8.33469 3.33075 8.11114 3.32008C7.90649 3.31032 7.6049 3.32366 7.31058 3.46684L8.18551 5.26531ZM8.64035 5.54681C8.74736 5.65092 8.84649 5.81296 8.90225 5.98656C8.92898 6.06979 8.94015 6.13874 8.9426 6.18643C8.94521 6.23727 8.93692 6.23987 8.94807 6.20735L10.8401 6.85555C11.0146 6.34616 10.9431 5.80043 10.8064 5.37497C10.6635 4.92989 10.405 4.47325 10.0351 4.11336L8.64035 5.54681ZM10.8923 6.4711C10.8422 5.6426 10.5809 4.88249 10.0051 4.30665C9.43692 3.73849 8.67833 3.46603 7.86177 3.37256L7.63432 5.35959C8.16897 5.42079 8.44367 5.57367 8.59086 5.72086C8.73036 5.86036 8.86652 6.10561 8.89591 6.5918L10.8923 6.4711Z" fill="#8C44B1" mask="url(#path-5-inside-2)"/>
<mask id="path-7-inside-3" fill="white">
<path d="M9.01825 6.22177C8.93877 5.68043 8.70032 5.21642 8.06445 5.21642C8.3029 5.13908 8.54135 5.13908 8.70032 5.37109C9.01825 5.52576 9.09773 5.8351 9.01825 6.22177Z"/>
</mask>
<path d="M9.01825 6.22177C8.93877 5.68043 8.70032 5.21642 8.06445 5.21642C8.3029 5.13908 8.54135 5.13908 8.70032 5.37109C9.01825 5.52576 9.09773 5.8351 9.01825 6.22177Z" fill="#8C44B1"/>
<path d="M9.01825 6.22177L8.02886 6.36704L9.99777 6.42312L9.01825 6.22177ZM8.06445 5.21642L7.75595 4.2652L8.06445 6.21642V5.21642ZM8.70032 5.37109L7.87539 5.93632L8.02493 6.15458L8.26285 6.27032L8.70032 5.37109ZM10.0076 6.0765C9.95644 5.72775 9.8388 5.27087 9.52652 4.88601C9.17511 4.45292 8.66332 4.21642 8.06445 4.21642V6.21642C8.09991 6.21642 8.08843 6.22231 8.05284 6.20595C8.01545 6.18877 7.98766 6.16367 7.97346 6.14617C7.96267 6.13287 7.97056 6.13746 7.98523 6.17782C7.99994 6.2183 8.01607 6.27995 8.02886 6.36704L10.0076 6.0765ZM8.37296 6.16764C8.41514 6.15396 8.35537 6.18323 8.23799 6.16246C8.17194 6.15078 8.09626 6.1245 8.02324 6.07713C7.95056 6.02998 7.90291 5.97649 7.87539 5.93632L9.52525 4.80586C9.29631 4.47172 8.96414 4.25987 8.58639 4.19304C8.25043 4.13361 7.95222 4.20154 7.75595 4.2652L8.37296 6.16764ZM8.26285 6.27032C8.23735 6.25792 8.19431 6.23103 8.15074 6.18244C8.10671 6.13333 8.07818 6.07991 8.06229 6.03353C8.03403 5.95103 8.05742 5.92952 8.03873 6.02043L9.99777 6.42312C10.0586 6.12735 10.082 5.75784 9.95434 5.38533C9.81522 4.97927 9.52703 4.66122 9.13778 4.47185L8.26285 6.27032Z" fill="#8C44B1" mask="url(#path-7-inside-3)"/>
</svg>
