<svg width="15" height="16" viewBox="0 0 15 16" fill="none" xmlns="http://www.w3.org/2000/svg">
<path d="M4.64711 14.9203C4.32918 14.7656 4.2497 14.4563 4.2497 14.1469C4.2497 13.7602 4.2497 13.3736 4.2497 12.9869C4.2497 12.8322 4.2497 12.7549 4.09073 12.7549C2.42159 12.2136 1.54728 11.0535 1.22934 9.4295C0.911411 7.80547 0.911411 6.1041 1.30883 4.48007C1.70624 2.70137 2.89849 1.77335 4.64711 1.38667C5.75988 1.07733 6.87264 1 8.06488 1C9.09816 1.07733 10.1314 1.15467 11.0852 1.46401C12.039 1.77335 12.9133 2.23736 13.4697 3.16538C13.8671 3.86139 14.1056 4.5574 14.1851 5.33075C14.4235 6.72278 14.344 8.19214 14.1056 9.58417C13.7877 11.2855 12.7544 12.4456 11.0058 12.9096C9.73403 13.2189 8.38282 13.3736 7.0316 13.2962C6.63419 13.2962 6.47522 13.3736 6.23677 13.6056C5.91884 13.9149 5.68039 14.3016 5.36246 14.6109C5.20349 14.7656 5.04453 14.8429 4.88556 14.9976C4.7266 14.9203 4.7266 14.9203 4.64711 14.9203ZM4.64711 14.4563C4.64711 14.4563 4.7266 14.4563 4.64711 14.4563C4.80608 14.3789 4.88556 14.3016 4.96505 14.2243C5.52143 13.6829 5.99832 13.0642 6.55471 12.5229C6.63419 12.4456 6.79316 12.3682 6.87264 12.3682C8.14437 12.3682 9.33661 12.2909 10.6083 11.9815C11.7211 11.6722 12.5159 10.9762 12.9133 9.89351C13.0723 9.35216 13.1518 8.73348 13.2313 8.11481C13.3108 7.03212 13.3108 5.94943 13.0723 4.86674C12.7544 3.62938 12.039 2.7787 10.7673 2.39203C10.052 2.16002 9.33661 2.08269 8.62127 2.00535C7.42902 1.92802 6.23677 1.92802 5.04453 2.23736C3.61383 2.5467 2.58055 3.39738 2.26262 4.78941C1.94469 6.25877 1.86521 7.72813 2.18314 9.19749C2.42159 10.5122 3.21642 11.5175 4.56763 11.9042C4.64711 11.9042 4.7266 12.0589 4.7266 12.1362C4.7266 12.6776 4.7266 13.1416 4.7266 13.6829C4.64711 13.9149 4.64711 14.1469 4.64711 14.4563Z" fill="#8C44B1" stroke="#8C44B1" stroke-width="0.25" stroke-miterlimit="10"/>
<path d="M6.0214 5.69978L6.01112 5.70728L6.00123 5.7153C5.74046 5.92674 5.49765 6.18037 5.43583 6.54126C5.39446 6.78277 5.44654 7.01525 5.52242 7.22541C5.13815 6.66917 4.81677 6.05612 4.55715 5.38251L4.54754 5.35757L4.53532 5.3338C4.52653 5.31668 4.51763 5.29278 4.49857 5.20933C4.49647 5.20014 4.49425 5.19025 4.49189 5.17972C4.48144 5.13312 4.46816 5.0739 4.44973 5.00624C4.57356 4.90882 4.69373 4.8065 4.80512 4.71167L4.81214 4.70569C4.93066 4.60479 5.03978 4.51207 5.14508 4.42924C5.14575 4.42969 5.14643 4.43014 5.14709 4.4306C5.27311 4.60924 5.40995 4.77927 5.53301 4.93218C5.56887 4.97673 5.60356 5.01984 5.63646 5.06127C5.80243 5.27025 5.93505 5.45068 6.03038 5.63619C6.03823 5.65147 6.04504 5.66518 6.05093 5.67753C6.04217 5.68436 6.03237 5.69177 6.0214 5.69978ZM9.45335 10.3271C8.70577 10.0028 8.03382 9.62346 7.43608 9.18456C7.54127 9.22427 7.65086 9.2596 7.76506 9.29033C7.92112 9.33957 8.12431 9.37968 8.34063 9.34142C8.58415 9.29834 8.79991 9.16341 8.95412 8.93834L8.96397 8.92396L8.9728 8.90893C9.0307 8.81035 9.07629 8.7643 9.10205 8.74438C9.12155 8.72931 9.12964 8.72863 9.13366 8.7283C9.13386 8.72828 9.13405 8.72827 9.13424 8.72825C9.16115 8.72575 9.2741 8.73598 9.52351 8.9085L9.99555 9.25296L10.44 9.57732C10.4435 9.58101 10.4466 9.58439 10.4493 9.58749C10.3343 9.91497 10.1174 10.1829 9.71032 10.3555C9.7005 10.3553 9.68534 10.3546 9.6631 10.3524C9.6359 10.3498 9.61188 10.3466 9.58045 10.3424C9.56606 10.3405 9.55013 10.3384 9.53162 10.336C9.50979 10.3332 9.48302 10.3299 9.45335 10.3271Z" fill="#8C44B1" stroke="#8C44B1"/>
<mask id="path-3-inside-1" fill="white">
<path d="M7.50781 4.01615C8.46161 3.93882 9.25644 4.32549 9.8923 4.94417C10.5282 5.64018 10.6871 6.41353 10.6871 7.34155C10.6077 5.33085 9.57437 4.17082 7.50781 4.01615Z"/>
</mask>
<path d="M7.50781 4.01615C8.46161 3.93882 9.25644 4.32549 9.8923 4.94417C10.5282 5.64018 10.6871 6.41353 10.6871 7.34155C10.6077 5.33085 9.57437 4.17082 7.50781 4.01615Z" fill="#8C44B1"/>
<path d="M7.50781 4.01615L7.427 3.01942L7.43318 5.01336L7.50781 4.01615ZM9.8923 4.94417L10.6306 4.26969L10.6107 4.24796L10.5897 4.22745L9.8923 4.94417ZM10.6871 7.34155L9.68791 7.38105L11.6871 7.34155H10.6871ZM7.58863 5.01288C8.19014 4.96411 8.7144 5.19334 9.19495 5.6609L10.5897 4.22745C9.79848 3.45765 8.73307 2.91353 7.427 3.01942L7.58863 5.01288ZM9.15402 5.61866C9.55397 6.05644 9.68713 6.54061 9.68713 7.34155H11.6871C11.6871 6.28645 11.5024 5.22393 10.6306 4.26969L9.15402 5.61866ZM11.6864 7.30205C11.6404 6.13933 11.3122 5.08683 10.5716 4.29825C9.82698 3.50546 8.78769 3.10915 7.58245 3.01894L7.43318 5.01336C8.29449 5.07783 8.80512 5.33887 9.1137 5.66743C9.42623 6.0002 9.65439 6.53307 9.68791 7.38105L11.6864 7.30205Z" fill="#8C44B1" mask="url(#path-3-inside-1)"/>
<mask id="path-5-inside-2" fill="white">
<path d="M7.74805 4.86607C8.06598 4.7114 8.86081 4.94341 9.33771 5.33008C9.81461 5.79409 10.0531 6.56744 9.89409 7.03145C9.81461 5.71676 9.09926 5.02074 7.74805 4.86607Z"/>
</mask>
<path d="M7.74805 4.86607C8.06598 4.7114 8.86081 4.94341 9.33771 5.33008C9.81461 5.79409 10.0531 6.56744 9.89409 7.03145C9.81461 5.71676 9.09926 5.02074 7.74805 4.86607Z" fill="#8C44B1"/>
<path d="M7.74805 4.86607L7.31058 3.96684L4.22267 5.46906L7.63432 5.85959L7.74805 4.86607ZM9.33771 5.33008L10.0351 4.61336L10.0026 4.58181L9.96751 4.55333L9.33771 5.33008ZM9.89409 7.03145L8.89591 7.0918L10.8401 7.35555L9.89409 7.03145ZM8.18551 5.76531C8.11037 5.80186 8.05294 5.8123 8.03166 5.81538C8.00863 5.81872 8.00201 5.81715 8.01585 5.81781C8.04566 5.81923 8.11012 5.82789 8.20307 5.85502C8.39618 5.91138 8.5895 6.01083 8.70791 6.10684L9.96751 4.55333C9.60902 4.26266 9.16647 4.05277 8.76346 3.93513C8.55835 3.87526 8.33469 3.83075 8.11114 3.82008C7.90649 3.81032 7.6049 3.82366 7.31058 3.96684L8.18551 5.76531ZM8.64035 6.04681C8.74736 6.15092 8.84649 6.31296 8.90225 6.48656C8.92898 6.56979 8.94015 6.63874 8.9426 6.68643C8.94521 6.73727 8.93692 6.73987 8.94807 6.70735L10.8401 7.35555C11.0146 6.84616 10.9431 6.30043 10.8064 5.87497C10.6635 5.42989 10.405 4.97325 10.0351 4.61336L8.64035 6.04681ZM10.8923 6.9711C10.8422 6.1426 10.5809 5.38249 10.0051 4.80665C9.43692 4.23849 8.67833 3.96603 7.86177 3.87256L7.63432 5.85959C8.16897 5.92079 8.44367 6.07367 8.59086 6.22086C8.73036 6.36036 8.86652 6.60561 8.89591 7.0918L10.8923 6.9711Z" fill="#8C44B1" mask="url(#path-5-inside-2)"/>
<mask id="path-7-inside-3" fill="white">
<path d="M9.01825 6.72177C8.93877 6.18043 8.70032 5.71642 8.06445 5.71642C8.3029 5.63908 8.54135 5.63908 8.70032 5.87109C9.01825 6.02576 9.09773 6.3351 9.01825 6.72177Z"/>
</mask>
<path d="M9.01825 6.72177C8.93877 6.18043 8.70032 5.71642 8.06445 5.71642C8.3029 5.63908 8.54135 5.63908 8.70032 5.87109C9.01825 6.02576 9.09773 6.3351 9.01825 6.72177Z" fill="#8C44B1"/>
<path d="M9.01825 6.72177L8.02886 6.86704L9.99777 6.92312L9.01825 6.72177ZM8.06445 5.71642L7.75595 4.7652L8.06445 6.71642V5.71642ZM8.70032 5.87109L7.87539 6.43632L8.02493 6.65458L8.26285 6.77032L8.70032 5.87109ZM10.0076 6.5765C9.95644 6.22775 9.8388 5.77087 9.52652 5.38601C9.17511 4.95292 8.66332 4.71642 8.06445 4.71642V6.71642C8.09991 6.71642 8.08843 6.72231 8.05284 6.70595C8.01545 6.68877 7.98766 6.66367 7.97346 6.64617C7.96267 6.63287 7.97056 6.63746 7.98523 6.67782C7.99994 6.7183 8.01607 6.77995 8.02886 6.86704L10.0076 6.5765ZM8.37296 6.66764C8.41514 6.65396 8.35537 6.68323 8.23799 6.66246C8.17194 6.65078 8.09626 6.6245 8.02324 6.57713C7.95056 6.52998 7.90291 6.47649 7.87539 6.43632L9.52525 5.30586C9.29631 4.97172 8.96414 4.75987 8.58639 4.69304C8.25043 4.63361 7.95222 4.70154 7.75595 4.7652L8.37296 6.66764ZM8.26285 6.77032C8.23735 6.75792 8.19431 6.73103 8.15074 6.68244C8.10671 6.63333 8.07818 6.57991 8.06229 6.53353C8.03403 6.45103 8.05742 6.42952 8.03873 6.52043L9.99777 6.92312C10.0586 6.62735 10.082 6.25784 9.95434 5.88533C9.81522 5.47927 9.52703 5.16122 9.13778 4.97185L8.26285 6.77032Z" fill="#8C44B1" mask="url(#path-7-inside-3)"/>
</svg>
