<svg width="104" height="78" viewBox="0 0 104 78" fill="none" xmlns="http://www.w3.org/2000/svg">
<path d="M14.4585 17.9106H60.7779" stroke="#F47D39" stroke-width="3" stroke-miterlimit="10" stroke-linecap="round" stroke-linejoin="round"/>
<path d="M14.4585 29.5347H32.5071" stroke="#F47D39" stroke-width="3" stroke-miterlimit="10" stroke-linecap="round" stroke-linejoin="round"/>
<path d="M40.4932 29.5347H50.4932" stroke="#F47D39" stroke-width="3" stroke-miterlimit="10" stroke-linecap="round" stroke-linejoin="round"/>
<path d="M14.4585 41.1587H47.0418" stroke="#F47D39" stroke-width="3" stroke-miterlimit="10" stroke-linecap="round" stroke-linejoin="round"/>
<path d="M49.0835 57.2418H9.98611C5.51389 57.2418 2 53.7386 2 49.28V1.50928H67.4861C71.9583 1.50928 75.4722 5.01246 75.4722 9.47106V28.5981" stroke="#F06838" stroke-width="3" stroke-miterlimit="10" stroke-linecap="round" stroke-linejoin="round"/>
<path d="M90.1672 45.2287C90.1672 47.458 86.6534 49.0504 85.8547 51.1204C85.0561 53.1905 86.3339 56.8529 84.7367 58.4453C83.1395 60.0376 79.6256 58.6045 77.3895 59.5599C75.3131 60.3561 73.7159 63.8593 71.4797 63.8593C69.2436 63.8593 67.6464 60.3561 65.57 59.5599C63.4936 58.7638 59.82 60.0376 58.2228 58.4453C56.6256 56.8529 58.0631 53.3497 57.1047 51.1204C56.3061 49.0504 52.7922 47.458 52.7922 45.2287C52.7922 42.9994 56.3061 41.4071 57.1047 39.337C57.9033 37.2669 56.6256 33.6045 58.2228 32.0122C59.82 30.4198 63.3339 31.8529 65.57 30.8975C67.6464 30.1013 69.2436 26.5981 71.4797 26.5981C73.7159 26.5981 75.3131 30.1013 77.3895 30.8975C79.4659 31.8529 83.1395 30.579 84.7367 32.1714C86.3339 33.7638 84.8964 37.2669 85.8547 39.4962C86.6534 41.4071 90.1672 42.9994 90.1672 45.2287Z" stroke="#F47D39" stroke-width="3" stroke-miterlimit="10" stroke-linecap="round" stroke-linejoin="round"/>
<path d="M76.0837 62.4985L87.3974 73.8122L89.5837 62.4985L100.125 61.0843L88.8117 49.7706" stroke="#F47D39" stroke-width="3"/>
<path d="M56.3972 50.5981L45.0835 61.9119L56.0837 63.5981L57.8114 74.6398L69.1251 63.3261" stroke="#F47D39" stroke-width="3"/>
<circle cx="71.0835" cy="45.5981" r="9.5" stroke="#F47D39" stroke-width="3"/>
</svg>
