<svg width="99" height="52" viewBox="0 0 99 52" fill="none" xmlns="http://www.w3.org/2000/svg">
<g clip-path="url(#clip0)">
<path d="M87.9305 44.589C87.8061 45.2066 88.3036 45.0831 88.8011 44.9596C91.1641 44.342 90.6666 44.7126 90.6666 44.7126C92.9053 44.589 97.0096 42.4893 97.0096 41.9952C97.0096 41.5012 97.134 39.5249 97.134 39.5249H96.5121V38.7838H97.134" stroke="white" stroke-width="3" stroke-miterlimit="10" stroke-linecap="round" stroke-linejoin="round"/>
<path d="M33.7042 44.5891H35.1967C36.4404 45.3302 40.0472 45.2067 40.0472 45.2067C42.0371 45.2067 72.5082 45.3302 72.5082 45.3302" stroke="white" stroke-width="3" stroke-miterlimit="10" stroke-linecap="round" stroke-linejoin="round"/>
<path d="M97.134 38.7838C97.5071 37.5487 96.5121 37.5487 96.5121 37.5487H96.3877L96.139 32.7316C96.139 32.7316 96.0146 31.2494 94.6465 30.1378C93.2784 29.0261 88.4279 25.5677 87.6817 24.9501C86.9355 24.3325 86.3136 23.5914 86.3136 23.5914H84.8211C83.5774 21.8622 74.2495 11.981 72.384 10.9929C72.384 10.9929 62.8073 2.22326 57.335 2.09975L27.3613 1.85272C27.3613 1.85272 27.1126 2.09975 26.7395 2.09975C26.3664 2.22326 25.9933 2.09975 25.6201 2.09975C25.247 2.09975 25.8689 1.85272 25.1226 1.85272C24.3764 1.85272 7.95933 1.85272 7.95933 1.85272C7.95933 1.85272 4.72566 1.35865 4.60129 3.45842C4.47692 5.55818 3.2332 23.0974 3.2332 23.0974L3.10883 39.8955C3.10883 39.8955 2.73571 40.5131 2.23822 40.5131C2.23822 40.5131 1.98948 40.7601 1.98948 41.1306C1.86511 41.7482 1.98948 43.3539 1.98948 43.3539C1.98948 43.3539 2.86008 44.342 5.22315 44.8361C4.9744 44.9596 4.72566 45.0831 4.60129 45.3302L4.97441 46.0712L6.21812 45.5772C6.21812 45.5772 16.9141 46.0712 17.536 45.8242C18.2822 45.7007 18.4066 45.3302 18.4066 45.3302L20.6453 45.2066" stroke="white" stroke-width="3" stroke-miterlimit="10" stroke-linecap="round" stroke-linejoin="round"/>
<path d="M27.1127 50.0238C30.8219 50.0238 33.8288 47.0376 33.8288 43.354C33.8288 39.6703 30.8219 36.6841 27.1127 36.6841C23.4035 36.6841 20.3966 39.6703 20.3966 43.354C20.3966 47.0376 23.4035 50.0238 27.1127 50.0238Z" stroke="white" stroke-width="3" stroke-miterlimit="10" stroke-linecap="round" stroke-linejoin="round"/>
<path d="M80.2193 50.0238C83.9284 50.0238 86.9353 47.0376 86.9353 43.354C86.9353 39.6703 83.9284 36.6841 80.2193 36.6841C76.5101 36.6841 73.5032 39.6703 73.5032 43.354C73.5032 47.0376 76.5101 50.0238 80.2193 50.0238Z" stroke="white" stroke-width="3" stroke-miterlimit="10" stroke-linecap="round" stroke-linejoin="round"/>
<path d="M3.23303 29.6437H93.1539" stroke="white" stroke-width="3" stroke-miterlimit="10" stroke-linecap="round" stroke-linejoin="round"/>
<path d="M55.718 2.34674V29.3966" stroke="white" stroke-width="3" stroke-miterlimit="10" stroke-linecap="round" stroke-linejoin="round"/>
</g>
<defs>
<clipPath id="clip0">
<rect width="99" height="52" fill="white" transform="translate(-0.000488281)"/>
</clipPath>
</defs>
</svg>
