<svg width="133" height="135" viewBox="0 0 133 135" fill="none" xmlns="http://www.w3.org/2000/svg">
<path d="M72.652 52.4546H86.3917L69.3545 36.4302V49.1619C69.3545 50.918 70.7834 52.4546 72.652 52.4546Z" stroke="white" stroke-width="3" stroke-miterlimit="10" stroke-linecap="round" stroke-linejoin="round"/>
<path d="M86.3916 66.0643V52.4546L69.3544 36.4302H45.3924C44.1833 36.4302 43.1941 37.418 43.1941 38.6253V87.796C43.1941 89.0033 44.1833 89.9912 45.3924 89.9912H62.0999" stroke="white" stroke-width="3" stroke-miterlimit="10" stroke-linecap="round" stroke-linejoin="round"/>
<path d="M80.0168 80.1128V90.2104" stroke="white" stroke-width="3" stroke-miterlimit="10" stroke-linecap="round" stroke-linejoin="round"/>
<path d="M74.9607 85.1616H84.9632" stroke="white" stroke-width="3" stroke-miterlimit="10" stroke-linecap="round" stroke-linejoin="round"/>
<path d="M79.3573 97.7837C86.3384 97.7837 91.9978 92.1327 91.9978 85.1617C91.9978 78.1908 86.3384 72.5398 79.3573 72.5398C72.3761 72.5398 66.7168 78.1908 66.7168 85.1617C66.7168 92.1327 72.3761 97.7837 79.3573 97.7837Z" stroke="white" stroke-width="3" stroke-miterlimit="10" stroke-linecap="round" stroke-linejoin="round"/>
<path d="M50.2292 52.4546H61.221" stroke="white" stroke-width="3" stroke-miterlimit="10" stroke-linecap="round" stroke-linejoin="round"/>
<path d="M50.2292 62.4425H78.6978" stroke="white" stroke-width="3" stroke-miterlimit="10" stroke-linecap="round" stroke-linejoin="round"/>
<path d="M50.2292 71.8811H64.1888" stroke="white" stroke-width="3" stroke-miterlimit="10" stroke-linecap="round" stroke-linejoin="round"/>
</svg>
