<svg width="90" height="64" viewBox="0 0 90 64" fill="none" xmlns="http://www.w3.org/2000/svg">
<g clip-path="url(#clip0)">
<path fill-rule="evenodd" clip-rule="evenodd" d="M47.598 1.78149C47.7161 1.78149 47.9523 1.78149 48.0704 1.78149C47.9523 2.12638 47.9523 2.35631 47.8342 2.7012C47.4799 3.73587 47.7161 4.54062 48.661 5.00047C49.2515 5.11544 49.6058 5.2304 50.0783 5.46033C51.3775 5.80522 52.5586 6.15011 53.8578 6.60996C56.5743 7.64463 58.4641 9.59901 58.7003 12.4731C58.8184 13.8527 58.8184 15.2322 58.8184 16.4968C58.8184 18.3362 58.8184 20.2906 58.8184 22.13C58.8184 22.7049 58.9366 23.0497 59.5271 23.2797C59.8814 23.5096 59.9995 23.8545 59.9995 24.1994C59.6452 26.1538 59.1728 28.1081 58.8184 30.1775C58.7003 30.7523 53.6216 38.11 53.7397 38.5698C53.8578 39.8344 54.5665 40.7541 54.6846 42.0187C54.6846 42.4786 56.3381 42.8235 56.8106 43.0534C57.283 43.2833 57.6373 43.7432 57.8736 44.203C58.1098 44.8928 58.346 45.6976 58.5822 46.3873C58.7003 46.6173 58.9365 46.9622 59.1728 47.0771C61.0625 48.1118 62.9523 49.0315 64.8421 49.9512C67.7948 51.4457 70.8657 53.0552 73.8184 54.5497C74.5271 54.8946 74.8814 55.3545 74.8814 56.2742C74.8814 57.8837 74.8814 59.3782 74.8814 60.9877C74.8814 61.6775 74.6452 62.2523 74.0547 62.5972C54.8027 62.5972 35.6688 62.5972 16.4169 62.5972C15.7082 62.2523 15.472 61.6775 15.5901 60.9877C15.5901 59.3782 15.5901 57.7687 15.5901 56.2742C15.5901 55.4695 15.9444 55.0096 16.6531 54.6647C18.8972 53.5151 21.1413 52.3654 23.2673 51.2158C25.9838 49.8362 28.5822 48.4567 31.2988 47.0771C31.535 46.9622 31.7712 46.7322 31.8893 46.3873C32.1255 45.6976 32.3618 44.8928 32.7161 44.203C32.9523 43.7432 34.6058 43.3983 34.9602 43.1684C35.4326 42.8235 36.1413 42.5935 36.2594 42.0187C36.3775 40.9841 37.0862 40.1793 37.2043 39.1446C37.3224 38.3399 32.2436 32.3618 32.0074 31.3271C31.6531 30.1775 31.2988 29.0278 31.0625 27.8782C30.8263 26.7286 30.5901 25.5789 30.3539 24.4293C30.2358 24.0844 30.3539 23.6246 30.7082 23.3946C31.2988 23.0497 31.4169 22.5899 31.4169 22.0151C31.4169 19.026 31.4169 16.1519 31.4169 13.1629C31.4169 12.3581 31.535 11.5534 31.7712 10.8636C32.1255 8.90923 33.5429 7.52967 35.4326 6.60996C38.031 5.46033 40.7476 4.42565 43.346 3.27602C44.7633 2.81617 46.1806 2.24135 47.598 1.78149Z" stroke="white" stroke-width="3" stroke-miterlimit="10" stroke-linecap="round" stroke-linejoin="round"/>
<path d="M63.7792 17.0717C64.0154 16.9567 64.3697 16.8417 64.6059 16.7268C65.6689 16.2669 66.7319 15.922 67.7949 15.5771C67.913 15.5771 68.0311 15.5771 68.1493 15.5771C68.1493 15.8071 68.1493 16.037 68.0311 16.2669C67.6768 17.0717 67.913 17.6465 68.7398 17.9914C69.0941 18.1063 69.4485 18.2213 69.8028 18.3363C70.7477 18.5662 71.8107 18.7961 72.7556 19.141C74.8815 19.9458 76.2989 21.4403 76.5351 23.6246C76.6532 24.6593 76.5351 25.6939 76.5351 26.7286C76.5351 28.2231 76.5351 29.6027 76.5351 31.0972C76.5351 31.5571 76.6532 31.787 77.0075 32.0169C77.3619 32.1319 77.3619 32.4768 77.3619 32.7067C77.0075 34.2012 76.7713 35.8107 76.417 37.3053C76.2989 37.7651 72.4012 43.3983 72.4012 43.8582C72.5193 44.7779 72.9918 45.5826 73.1099 46.5023C73.1099 46.8472 74.4091 47.0772 74.7634 47.3071C75.1178 47.537 75.354 47.7669 75.5902 48.2268C75.8264 48.8016 75.9445 49.3764 76.1808 49.9512C76.2989 50.1812 76.417 50.4111 76.6532 50.4111C78.0705 51.2158 79.6059 51.9056 81.0233 52.7104C83.3855 53.86 85.6296 55.1246 87.9918 56.2742C88.5823 56.6191 88.8185 56.964 88.8185 57.5388C88.8185 58.8034 88.8185 59.9531 88.8185 61.2177C88.8185 61.7925 88.7004 62.2523 88.1099 62.4823C85.9839 62.4823 83.8579 62.4823 81.7319 62.4823" stroke="white" stroke-width="3" stroke-miterlimit="10" stroke-linecap="round" stroke-linejoin="round"/>
<path d="M26.102 17.0717C25.8658 16.9567 25.5115 16.8417 25.2753 16.7268C24.2123 16.2669 23.1493 15.922 22.0863 15.5771C21.9682 15.5771 21.8501 15.5771 21.732 15.5771C21.732 15.8071 21.732 16.037 21.8501 16.2669C22.2044 17.0717 21.9682 17.6465 21.1414 17.9914C20.7871 18.1063 20.4328 18.2213 20.0784 18.3363C19.1335 18.5662 18.0706 18.7961 17.1257 19.141C14.9997 19.9458 13.5824 21.4403 13.3461 23.6246C13.228 24.6593 13.3461 25.6939 13.3461 26.7286C13.3461 28.2231 13.3461 29.6027 13.3461 31.0972C13.3461 31.5571 13.228 31.787 12.8737 32.0169C12.5194 32.1319 12.5194 32.4768 12.5194 32.7067C12.8737 34.2012 13.1099 35.8107 13.4643 37.3053C13.5824 37.7651 17.48 43.3983 17.48 43.8582C17.3619 44.7779 16.8894 45.5826 16.7713 46.5023C16.7713 46.8472 15.4721 47.0772 15.1178 47.3071C14.7635 47.537 14.5272 47.7669 14.291 48.2268C14.0548 48.8016 13.9367 49.3764 13.7005 49.9512C13.5824 50.1812 13.4643 50.4111 13.228 50.4111C11.8107 51.2158 10.2753 51.9056 8.85795 52.7104C6.49575 53.86 4.25165 55.1246 1.88945 56.2742C1.41701 56.6191 1.18079 56.964 1.18079 57.5388C1.18079 58.8034 1.18079 59.9531 1.18079 61.2177C1.18079 61.7925 1.2989 62.2523 1.88945 62.4823C4.01543 62.4823 6.14142 62.4823 8.2674 62.4823" stroke="white" stroke-width="3" stroke-miterlimit="10" stroke-linecap="round" stroke-linejoin="round"/>
</g>
<defs>
<clipPath id="clip0">
<rect width="90" height="63" fill="white" transform="translate(-0.000427246 0.631836)"/>
</clipPath>
</defs>
</svg>
