<svg width="83" height="64" viewBox="0 0 83 64" fill="none" xmlns="http://www.w3.org/2000/svg">
<g clip-path="url(#clip0)">
<path fill-rule="evenodd" clip-rule="evenodd" d="M75.4307 62.1092H7.56859C4.45825 62.1092 1.91342 59.6059 1.91342 56.5463V7.45354C1.91342 4.39394 4.45825 1.89062 7.56859 1.89062H75.4307C78.541 1.89062 81.0858 4.39394 81.0858 7.45354V56.5463C81.0858 59.6059 78.541 62.1092 75.4307 62.1092Z" stroke="white" stroke-width="3" stroke-miterlimit="10" stroke-linecap="round" stroke-linejoin="round"/>
<path d="M31.603 54.3213C43.6276 54.3213 53.3754 44.7324 53.3754 32.904C53.3754 21.0756 43.6276 11.4868 31.603 11.4868C19.5784 11.4868 9.83057 21.0756 9.83057 32.904C9.83057 44.7324 19.5784 54.3213 31.603 54.3213Z" stroke="white" stroke-width="3" stroke-miterlimit="10" stroke-linecap="round" stroke-linejoin="round"/>
<path d="M18.172 32.9038C18.172 25.672 24.2513 19.6919 31.603 19.6919" stroke="white" stroke-width="3" stroke-miterlimit="10" stroke-linecap="round" stroke-linejoin="round"/>
<path d="M31.6031 38.4669C34.7263 38.4669 37.2583 35.9763 37.2583 32.904C37.2583 29.8317 34.7263 27.3411 31.6031 27.3411C28.4798 27.3411 25.9479 29.8317 25.9479 32.904C25.9479 35.9763 28.4798 38.4669 31.6031 38.4669Z" stroke="white" stroke-width="3" stroke-miterlimit="10" stroke-linecap="round" stroke-linejoin="round"/>
<path d="M71.8964 32.0696H61.7171V39.9967H71.8964V32.0696Z" stroke="white" stroke-width="3" stroke-miterlimit="10" stroke-linecap="round" stroke-linejoin="round"/>
<path d="M71.8964 32.0696H61.7171V39.9967H71.8964V32.0696Z" stroke="white" stroke-width="3" stroke-miterlimit="10" stroke-linecap="round" stroke-linejoin="round"/>
<path d="M71.8964 15.2417H61.7171V23.1688H71.8964V15.2417Z" stroke="white" stroke-width="3" stroke-miterlimit="10" stroke-linecap="round" stroke-linejoin="round"/>
<path d="M71.8964 15.2417H61.7171V23.1688H71.8964V15.2417Z" stroke="white" stroke-width="3" stroke-miterlimit="10" stroke-linecap="round" stroke-linejoin="round"/>
<path d="M60.8683 50.7053H72.7441" stroke="white" stroke-width="3" stroke-miterlimit="10" stroke-linecap="round" stroke-linejoin="round"/>
</g>
<defs>
<clipPath id="clip0">
<rect width="82" height="63" fill="white" transform="translate(0.499634 0.5)"/>
</clipPath>
</defs>
</svg>
