<svg width="76" height="60" viewBox="0 0 76 60" fill="none" xmlns="http://www.w3.org/2000/svg">
<g clip-path="url(#clip0)">
<path d="M17.5577 4.26416C17.5577 4.26416 12.7651 13.8454 10.9153 17.4593C10.9153 17.4593 10.9153 15.1901 9.57 14.6858C9.57 14.6858 5.02965 14.2656 2.25498 17.8795C2.25498 17.8795 1.83458 20.1488 7.72023 22.418C7.72023 22.418 7.72023 26.032 4.10476 29.2257V55.7001C4.10476 55.7001 4.10476 57.9693 6.37494 57.9693C8.64512 57.9693 10.9153 57.9693 12.2606 57.9693C14.6148 57.9693 14.5308 55.7001 14.5308 55.7001V52.9266H45.1361" stroke="white" stroke-width="3" stroke-miterlimit="10" stroke-linecap="round" stroke-linejoin="round"/>
<path d="M54.5532 8.7186C49.2561 7.20578 27.9837 7.20578 22.6025 8.7186C22.6025 8.7186 18.2303 15.5263 17.3895 19.8967H38.6619" stroke="white" stroke-width="3" stroke-miterlimit="10" stroke-linecap="round" stroke-linejoin="round"/>
<path d="M38.6619 19.8966H39.7549" stroke="white" stroke-width="3" stroke-miterlimit="10"/>
<path d="M17.8941 41.0762C20.6339 41.0762 22.8549 38.8561 22.8549 36.1175C22.8549 33.3789 20.6339 31.1588 17.8941 31.1588C15.1544 31.1588 12.9333 33.3789 12.9333 36.1175C12.9333 38.8561 15.1544 41.0762 17.8941 41.0762Z" stroke="white" stroke-width="3" stroke-miterlimit="10" stroke-linecap="round" stroke-linejoin="round"/>
<path d="M17.5579 4.26418C21.1733 0.650221 55.1419 0.650221 58.8415 4.26418C58.8415 4.26418 64.3067 13.8454 66.1565 17.4593C66.1565 17.4593 66.1565 15.1901 67.5018 14.6858C67.5018 14.6858 72.0422 14.2656 74.8168 17.8796C74.8168 17.8796 75.2372 20.1488 69.3516 22.418C69.3516 22.418 69.3516 26.032 72.9671 29.2257V55.7001C72.9671 55.7001 72.9671 57.9693 70.6969 57.9693C68.4267 57.9693 66.1565 57.9693 64.8112 57.9693C62.457 57.9693 62.541 55.7001 62.541 55.7001V52.9266H31.8516" stroke="white" stroke-width="3" stroke-miterlimit="10" stroke-linecap="round" stroke-linejoin="round"/>
<path d="M22.6027 8.7186C27.8997 7.20578 49.1722 7.20578 54.5533 8.7186C54.5533 8.7186 58.9255 15.5263 59.7663 19.8967H38.4939" stroke="white" stroke-width="3" stroke-miterlimit="10" stroke-linecap="round" stroke-linejoin="round"/>
<path d="M38.3257 19.8966H37.2327" stroke="white" stroke-width="3" stroke-miterlimit="10"/>
<path d="M59.0937 41.0762C61.8334 41.0762 64.0545 38.8561 64.0545 36.1175C64.0545 33.3789 61.8334 31.1588 59.0937 31.1588C56.3539 31.1588 54.1329 33.3789 54.1329 36.1175C54.1329 38.8561 56.3539 41.0762 59.0937 41.0762Z" stroke="white" stroke-width="3" stroke-miterlimit="10" stroke-linecap="round" stroke-linejoin="round"/>
</g>
<defs>
<clipPath id="clip0">
<rect width="75" height="59" fill="white" transform="translate(0.993774 0.22998)"/>
</clipPath>
</defs>
</svg>
