<svg width="58" height="62" viewBox="0 0 58 62" fill="none" xmlns="http://www.w3.org/2000/svg">
<g clip-path="url(#clip0)">
<path d="M8.02846 42.9963C9.10697 44.6592 10.3053 46.2032 11.7433 47.6285C13.5409 49.5289 15.4582 51.3105 17.4954 52.8546C23.9665 57.7243 31.9954 60.5749 40.264 60.8124C40.264 60.8124 42.1814 60.4561 42.7805 59.981L46.3756 56.7741C47.6938 55.5864 48.4128 53.2109 47.9334 51.5481L47.6938 50.8354C47.3342 49.7665 46.4954 48.5787 45.5367 47.7473C44.9376 47.2722 44.3384 46.9159 43.7392 46.7971L37.5078 44.778C35.8301 44.1841 33.3136 44.778 31.9954 45.9657L29.5987 48.1036C21.3301 45.4906 15.0987 38.6017 13.3012 30.2875L15.6979 28.1496C17.0161 26.9619 17.7351 24.5864 17.3756 22.8048L15.9376 16.391C15.8177 16.0347 15.6979 15.5596 15.4582 15.2032C14.7392 13.8967 13.421 12.5902 12.2227 12.1151L11.3838 11.64C9.70615 11.0462 7.30945 11.4025 5.99127 12.5902L2.39623 15.7971C1.79706 16.391 1.31772 18.0538 1.31772 18.0538C0.718544 26.9619 3.11524 35.6324 8.02846 42.9963Z" stroke="white" stroke-width="3" stroke-miterlimit="10" stroke-linecap="round"/>
<path d="M27.6814 16.7473C34.512 18.6477 39.545 24.8239 39.545 32.1879C39.545 32.7818 39.545 33.4944 39.4252 34.0883" stroke="white" stroke-width="3" stroke-miterlimit="10" stroke-linecap="round"/>
<path d="M31.2765 9.2644C40.8632 12.4713 47.8136 21.4981 47.8136 32.1878C47.8136 32.3065 47.8136 32.4253 47.8136 32.6629" stroke="white" stroke-width="3" stroke-miterlimit="10" stroke-linecap="round"/>
<path d="M35.1111 1.18787C47.4541 5.70128 56.3219 17.3411 56.8012 31.0001" stroke="white" stroke-width="3" stroke-miterlimit="10" stroke-linecap="round"/>
</g>
<defs>
<clipPath id="clip0">
<rect width="58" height="62" fill="white" transform="translate(-0.000427246 0.00012207)"/>
</clipPath>
</defs>
</svg>
