<svg width="69" height="65" viewBox="0 0 69 65" fill="none" xmlns="http://www.w3.org/2000/svg">
<g clip-path="url(#clip0)">
<path d="M34.0622 62.1655C29.6417 65.0661 24.9391 65.2532 20.1424 63.4755C19.0138 63.0076 17.9792 62.2591 17.2268 61.3234C17.1328 61.1363 16.8506 61.0427 16.6625 61.1363C14.2171 61.5106 11.9599 60.762 9.98476 59.4521C6.88103 57.3936 4.62376 54.6801 3.68324 51.031C3.40108 49.7211 3.40108 48.5047 3.77729 47.1948C3.87134 47.0076 3.77729 46.6334 3.58919 46.5398C1.42598 44.9492 0.579505 42.7035 0.203295 40.2708C-0.078863 38.1187 0.109242 35.9667 0.955715 33.9082C1.52003 32.5047 2.46056 31.2883 3.68324 30.3527C2.93082 27.6392 3.21298 24.9258 4.34161 22.3059C5.56429 19.686 7.35129 17.7211 10.2669 16.7854C10.2669 15.0076 10.5491 13.3234 11.3955 11.8263C12.8063 9.01933 14.9695 7.14799 18.0733 6.39945C18.2614 6.30588 18.5435 6.11875 18.6376 5.93161C19.9543 2.18892 24.0926 0.411147 27.7607 0.691848C30.2061 0.878983 32.3693 1.72109 34.0622 3.686C34.2503 3.49887 34.3444 3.4053 34.4384 3.31173C37.8243 -0.337391 44.6902 -0.243824 47.982 3.31173C48.2641 3.686 48.6404 4.06027 48.8285 4.43454C49.2987 5.74448 50.1452 6.21232 51.4619 6.68015C55.13 7.99009 57.7635 11.9199 57.8575 15.8497C57.8575 16.1304 57.8575 16.4111 57.8575 16.5983C63.0304 18.2825 65.0996 23.803 64.8174 27.7328C64.7234 28.5749 64.3471 29.417 64.5352 30.072C64.7234 30.7269 65.5698 31.1948 66.0401 31.7562C67.639 34.0018 68.2033 36.6217 67.9211 39.3351C67.8271 40.2708 67.639 41.3 67.3568 42.1421C66.7925 43.9199 65.7579 45.417 64.159 46.4462C65.2877 50.8439 63.4066 54.2123 60.491 57.2065C58.5159 59.2649 56.2586 60.6685 53.343 60.9492C52.6846 61.0427 52.0263 60.8556 51.4619 60.8556C51.2738 60.8556 50.9917 60.8556 50.8976 61.0427C49.2987 63.1012 46.9474 63.9433 44.408 64.224C41.6805 64.5983 39.047 64.4111 36.5076 63.3819C35.6611 63.1948 34.9087 62.6334 34.0622 62.1655ZM52.3084 58.1421C53.1549 58.3293 54.0954 58.1421 54.9419 57.7679C57.9516 56.4579 60.1148 54.2123 61.2434 51.1246C61.6196 50.1889 61.7137 49.2532 61.4315 48.224C61.3375 47.7562 61.1494 47.6626 60.6791 47.6626C59.5505 47.6626 58.4218 47.7562 57.3872 47.569C54.8478 47.1012 52.6846 45.8848 51.9322 43.1714C51.4619 41.5807 51.65 39.9901 52.2144 38.493C52.8727 37.0895 53.6251 35.686 54.4716 34.3761C55.7884 32.4111 55.224 30.2591 53.0608 29.3234C52.5906 29.1363 52.1203 28.9492 51.556 28.8556C49.2047 28.3878 47.5117 29.417 47.1355 31.7562C46.9474 33.1597 47.1355 34.6568 47.2296 36.0603C47.4177 39.0544 45.9128 41.5807 43.0913 42.5164C41.9626 42.8907 40.7399 43.0778 39.5173 42.9842C38.2005 42.8907 36.8838 42.5164 35.5671 42.2357C35.5671 42.2357 35.5671 42.2357 35.5671 42.3293C35.5671 47.7562 35.5671 53.0895 35.5671 58.5164C35.5671 59.4521 36.0373 60.2006 36.7897 60.6684C37.4481 61.0427 38.1065 61.417 38.8589 61.6041C40.834 62.072 42.715 62.072 44.6902 61.7913C46.289 61.6041 47.5117 60.762 48.2641 59.4521C48.7344 58.61 49.1106 57.7679 49.3928 56.8322C49.863 55.148 49.863 53.4638 49.2047 51.7796C48.5463 50.0954 46.5712 49.0661 44.8783 49.4404C43.1853 49.8147 42.1507 51.4989 42.2448 53.3702C42.2448 53.6509 42.2448 53.838 42.3388 54.2123C41.3983 54.493 40.4578 54.6801 39.4232 54.9608C39.3292 54.3994 39.2351 53.9316 39.2351 53.3702C39.047 50.0018 41.2102 47.0076 44.1258 46.4462C48.1701 45.6977 52.3084 48.879 52.4965 52.9024C52.6846 54.493 52.4025 56.2708 52.3084 58.1421ZM32.4633 42.0486C30.5823 42.7971 28.7953 43.1714 26.8202 42.9842C24.1867 42.61 22.1175 41.3936 21.177 38.8673C20.7068 37.6509 20.8008 36.341 20.8949 35.1246C20.9889 33.9082 20.9889 32.5983 20.8008 31.3819C20.4246 29.5106 18.8257 28.5749 16.9446 28.762C16.4744 28.8556 16.0041 28.9492 15.5339 29.1363C12.9004 29.9784 12.148 32.3176 13.8409 34.5632C14.9695 36.0603 15.722 37.5573 16.1922 39.3351C17.0387 42.5164 15.9101 45.2299 13.2766 46.6334C11.6777 47.4755 9.89071 47.7562 8.10371 47.6626C6.69292 47.569 6.50482 47.7562 6.50482 49.2532C6.50482 49.4404 6.50482 49.6275 6.50482 49.7211C6.97508 53.2766 10.7372 57.3 14.2171 58.0486C14.7814 58.1421 15.3458 58.1421 15.9101 58.1421C15.722 57.1129 15.5339 56.1772 15.4398 55.2416C14.8755 51.3117 16.2863 48.5983 19.4841 46.9141C23.5283 44.8556 27.9488 47.1012 28.6072 51.5924C28.7953 52.6217 28.7953 53.6509 28.4191 54.6801C27.4785 54.3994 26.538 54.2123 25.5975 53.9316C25.5975 53.6509 25.6915 53.3702 25.6915 53.0895C25.7856 51.9667 25.5034 50.9375 24.657 50.0954C22.7759 48.1304 19.4841 49.0661 18.6376 51.7796C17.7911 54.6801 18.2614 57.3936 20.1424 59.7328C20.7068 60.3877 21.4592 61.0427 22.3056 61.2299C25.0332 61.9784 27.6666 61.9784 30.3001 60.9492C31.7109 60.3878 32.4633 59.2649 32.4633 57.6743C32.4633 52.7152 32.4633 47.7562 32.4633 42.7035C32.4633 42.61 32.4633 42.4228 32.4633 42.0486ZM60.3029 31.7562C60.3969 31.569 60.491 31.3819 60.585 31.1948C61.5256 29.0427 61.9018 26.7971 61.3375 24.4579C60.7731 22.0252 59.4564 20.2474 56.8229 19.4989C55.6943 21.3702 54.0954 22.5866 52.1203 23.3351C51.7441 22.3994 51.3679 21.4638 50.9917 20.6217C54.0954 18.8439 55.13 16.6918 54.5657 13.9784C54.0954 11.6392 51.9322 9.58074 49.6749 9.30003C49.6749 9.3936 49.5809 9.58074 49.5809 9.6743C49.1106 11.3585 48.1701 12.5749 46.5712 13.2299C46.0069 13.5106 45.3485 13.6977 44.7842 13.9784C43.9377 14.3527 42.9972 14.6334 42.2448 15.1948C39.4232 17.0661 39.6113 21.2766 42.5269 22.9609C43.1853 23.3351 43.8437 23.5223 44.5961 23.803C45.8188 24.2708 47.0415 24.7386 47.982 25.6743C48.2641 26.0486 48.5463 26.0486 49.0166 25.955C51.65 25.3 54.0954 25.8614 56.2586 27.6392C57.9516 29.0427 58.8921 30.9141 58.3278 33.1597C58.0456 34.1889 57.2932 35.1246 56.8229 36.0603C56.2586 37.1831 55.4121 38.3059 55.0359 39.5223C54.2835 41.955 55.5062 44.0135 57.9516 44.3877C59.1742 44.5749 60.3969 44.4813 61.6196 44.2942C62.6542 44.2006 63.4066 43.4521 63.9709 42.5164C64.8174 40.9258 65.0996 39.2416 65.0055 37.4638C64.8174 34.7503 63.4066 32.879 60.8672 31.9433C60.6791 31.9433 60.491 31.8497 60.3029 31.7562ZM11.1134 19.5924C9.32639 20.0603 8.10371 21.0895 7.35129 22.6801C6.50482 24.4579 6.31671 26.2357 6.59887 28.107C6.78697 29.3234 7.25724 30.6334 7.63345 31.8497C7.53939 31.9433 7.25724 31.9433 7.06913 32.0369C5.28213 32.7854 3.87134 33.8147 3.40108 35.7796C2.83677 38.0252 2.93082 40.1772 3.87134 42.2357C4.43566 43.3585 5.28213 44.2006 6.59887 44.3877C7.44534 44.5749 8.29181 44.6684 9.13829 44.5749C11.7718 44.3877 13.3707 42.7971 13.0885 40.4579C12.9944 39.5223 12.7123 38.6801 12.3361 37.838C11.8658 36.8088 11.1134 35.9667 10.455 35.031C9.13829 32.9725 9.23234 30.8205 10.6431 28.8556C12.4301 26.4228 15.816 25.3 18.9198 26.0486C19.2019 26.1421 19.5781 26.1421 19.6722 25.955C20.8008 24.7386 22.3056 24.1772 23.8105 23.6158C24.3748 23.4287 24.8451 23.2416 25.3153 22.9609C28.325 21.1831 28.325 16.7854 25.2213 15.0076C24.4689 14.5398 23.5283 14.2591 22.6819 13.9784C20.3305 13.2299 18.5435 11.9199 18.0733 9.3936C15.9101 9.6743 13.7469 11.7328 13.1825 13.9784C12.5242 16.5983 13.5588 18.5632 16.7565 20.7152C16.3803 21.5573 16.0041 22.493 15.6279 23.3351C14.1231 22.7737 12.8063 21.7445 11.1134 19.5924ZM22.3997 27.5456C22.87 28.4813 23.4343 29.2299 23.7164 30.072C24.3748 31.8497 24.1867 33.6275 23.9045 35.4053C23.5283 37.838 24.751 39.4287 27.1964 39.7094C28.7012 39.8965 30.112 39.6158 31.5228 39.2416C32.1812 39.0544 32.4633 38.6801 32.4633 37.9316C32.4633 28.2006 32.4633 18.5632 32.4633 8.8322C32.4633 8.45793 32.4633 8.17723 32.4633 7.80296C32.3693 6.58658 31.899 5.65091 30.9585 4.90237C28.6072 2.93746 24.1867 3.31173 22.2116 5.55735C20.6127 7.42869 20.9889 9.86144 23.1521 11.0778C23.9986 11.5456 24.8451 11.7328 25.6915 12.1071C26.6321 12.4813 27.6666 12.8556 28.325 13.5106C31.4287 16.224 31.5228 21.5573 28.6072 24.3644C27.4785 25.4872 26.0677 26.1421 24.5629 26.61C23.8105 26.8907 23.0581 27.2649 22.3997 27.5456ZM45.7247 27.7328C45.5366 27.6392 45.4426 27.4521 45.2545 27.3585C44.408 26.9842 43.6556 26.7035 42.8091 26.4228C39.3292 25.2065 37.1659 22.3994 37.3541 19.1246C37.5422 15.8497 38.8589 12.8556 42.9972 11.8263C43.8437 11.6392 44.6902 11.2649 45.3485 10.7971C46.7593 9.86144 47.2296 8.36436 46.5712 6.77372C46.195 5.83805 45.6307 5.18308 44.7842 4.62167C42.9032 3.49887 40.834 3.31173 38.6708 3.9667C36.6016 4.62167 35.5671 6.11875 35.5671 8.27079C35.5671 18.2825 35.5671 28.2006 35.5671 38.2123C35.5671 38.6801 35.7552 38.8673 36.1314 39.0544C37.7303 39.6158 39.3292 39.8965 40.9281 39.7094C43.1853 39.4287 44.3139 38.0252 44.1258 35.7796C44.1258 35.5924 44.0318 35.4053 44.0318 35.1246C43.6556 32.4111 43.6556 29.8848 45.7247 27.7328Z" fill="white"/>
</g>
<defs>
<clipPath id="clip0">
<rect width="68" height="64" fill="white" transform="translate(0.0151978 0.598267)"/>
</clipPath>
</defs>
</svg>
