<svg width="75" height="79" viewBox="0 0 75 79" fill="none" xmlns="http://www.w3.org/2000/svg">
<g clip-path="url(#clip0)">
<path d="M37.0152 17.3423C41.0036 17.3423 44.2369 13.7821 44.2369 9.39037C44.2369 4.99866 41.0036 1.43848 37.0152 1.43848C33.0268 1.43848 29.7935 4.99866 29.7935 9.39037C29.7935 13.7821 33.0268 17.3423 37.0152 17.3423Z" stroke="white" stroke-width="3" stroke-miterlimit="10" stroke-linecap="round" stroke-linejoin="round"/>
<path d="M45.5742 19.6653C45.5742 18.4145 44.8609 17.3423 43.9694 17.3423H29.9718C29.0802 17.3423 28.3669 18.4145 28.3669 19.6653V30.2083H45.485V19.6653H45.5742Z" stroke="white" stroke-width="3" stroke-miterlimit="10" stroke-linecap="round" stroke-linejoin="round"/>
<path d="M17.6683 62.9986C21.6568 62.9986 24.89 59.4384 24.89 55.0467C24.89 50.655 21.6568 47.0948 17.6683 47.0948C13.6799 47.0948 10.4467 50.655 10.4467 55.0467C10.4467 59.4384 13.6799 62.9986 17.6683 62.9986Z" stroke="white" stroke-width="3" stroke-miterlimit="10" stroke-linecap="round" stroke-linejoin="round"/>
<path d="M26.2273 65.3217C26.2273 64.0708 25.5141 62.9987 24.6225 62.9987H10.6249C9.73333 62.9987 9.02008 64.0708 9.02008 65.3217V75.8646H26.1382V65.3217H26.2273Z" stroke="white" stroke-width="3" stroke-miterlimit="10" stroke-linecap="round" stroke-linejoin="round"/>
<path d="M56.0056 63.8921C59.9941 63.8921 63.2273 60.3319 63.2273 55.9402C63.2273 51.5485 59.9941 47.9883 56.0056 47.9883C52.0172 47.9883 48.7839 51.5485 48.7839 55.9402C48.7839 60.3319 52.0172 63.8921 56.0056 63.8921Z" stroke="white" stroke-width="3" stroke-miterlimit="10" stroke-linecap="round" stroke-linejoin="round"/>
<path d="M64.5647 66.1258C64.5647 64.8749 63.8514 63.8027 62.9598 63.8027H49.0514C48.1598 63.8027 47.4466 64.8749 47.4466 66.1258V76.6687H64.5647V66.1258Z" stroke="white" stroke-width="3" stroke-miterlimit="10" stroke-linecap="round" stroke-linejoin="round"/>
<path d="M37.0152 33.8715V48.7924" stroke="white" stroke-width="3" stroke-miterlimit="10" stroke-linecap="round" stroke-linejoin="round"/>
<path d="M27.7429 48.7925H46.4658" stroke="white" stroke-width="3" stroke-miterlimit="10" stroke-linecap="round" stroke-linejoin="round"/>
<path d="M48.0706 11.1774C62.3356 15.8234 72.6778 29.3148 72.6778 45.1293C72.6778 51.7409 70.8947 57.9952 67.7742 63.2667" stroke="white" stroke-width="3" stroke-miterlimit="10" stroke-linecap="round" stroke-linejoin="round"/>
<path d="M4.82965 60.5862C2.60073 55.9402 1.35254 50.6687 1.35254 45.1292C1.35254 29.5828 11.2489 16.4487 24.979 11.4453" stroke="white" stroke-width="3" stroke-miterlimit="10" stroke-linecap="round" stroke-linejoin="round"/>
<path d="M6.88037 45.1292C6.88037 33.6928 13.2105 23.7753 22.4828 18.5931" stroke="white" stroke-width="3" stroke-miterlimit="10" stroke-linecap="round" stroke-linejoin="round"/>
<path d="M44.0586 74.4351C42.0972 74.9711 40.0465 75.2392 37.9068 75.3285C35.1429 75.4179 32.4682 75.2392 29.8827 74.6138" stroke="white" stroke-width="3" stroke-miterlimit="10" stroke-linecap="round" stroke-linejoin="round"/>
<path d="M50.8345 18.057C60.6417 23.0604 67.3285 33.246 67.3285 45.0398" stroke="white" stroke-width="3" stroke-miterlimit="10" stroke-linecap="round" stroke-linejoin="round"/>
</g>
<defs>
<clipPath id="clip0">
<rect width="74" height="78" fill="white" transform="translate(0.0151978 0.0982666)"/>
</clipPath>
</defs>
</svg>
