<svg width="66" height="60" viewBox="0 0 66 60" fill="none" xmlns="http://www.w3.org/2000/svg">
<g clip-path="url(#clip0)">
<path d="M7.11181 27.9454L4.58403 29.108C2.05626 30.2705 2.05626 32.0144 4.58403 33.1769L24.8063 42.4774C27.334 43.64 31.3063 43.64 33.4729 42.4774L56.2229 32.0144L60.9174 29.6893C63.4451 28.5267 63.4451 26.7829 60.9174 25.6203L56.584 23.5858" stroke="white" stroke-width="3" stroke-miterlimit="10" stroke-linecap="round" stroke-linejoin="round"/>
<path d="M56.2229 10.2168L40.6951 3.24143C38.1674 2.07887 34.1951 2.07887 31.6674 3.24143L4.58403 16.0296C2.05626 17.1922 2.05626 18.936 4.58403 20.0986L24.8063 29.3991C27.334 30.5616 31.3063 30.5616 33.4729 29.3991L56.2229 18.936L60.9174 16.6109C63.4451 15.4483 63.4451 13.7045 60.9174 12.5419L56.2229 10.2168Z" stroke="white" stroke-width="3" stroke-miterlimit="10" stroke-linecap="round" stroke-linejoin="round"/>
<path d="M7.47292 41.6057L4.58403 43.0589C2.05626 44.2215 2.05626 45.9653 4.58403 47.1279L24.8063 56.4284C25.1674 56.719 25.5285 56.719 25.8896 56.719C27.6951 57.3003 30.2229 57.3003 32.3896 56.719C32.7507 56.719 33.1118 56.4284 33.4729 56.4284L56.2229 45.9653L60.9174 43.6402C63.4451 42.4777 63.4451 40.7338 60.9174 39.5713L58.3896 38.4087" stroke="white" stroke-width="3" stroke-miterlimit="10" stroke-linecap="round" stroke-linejoin="round"/>
</g>
<defs>
<clipPath id="clip0">
<rect width="65" height="59" fill="white" transform="translate(0.248993 0.334595)"/>
</clipPath>
</defs>
</svg>
