<svg width="71" height="61" viewBox="0 0 71 61" fill="none" xmlns="http://www.w3.org/2000/svg">
<g clip-path="url(#clip0)">
<path d="M11.0715 58.6501H6.54495C4.12001 58.6501 2.18005 56.7301 2.18005 54.3301V15.7701C2.18005 13.3701 4.12001 11.4501 6.54495 11.4501H11.2332" stroke="white" stroke-width="3" stroke-miterlimit="10" stroke-linecap="round" stroke-linejoin="round"/>
<path d="M45.8295 6.17004V11.45H24.49V6.17004C24.49 3.77004 26.4299 1.85004 28.8549 1.85004H41.4646C43.8895 1.85004 45.8295 3.77004 45.8295 6.17004Z" stroke="white" stroke-width="3" stroke-miterlimit="10" stroke-linecap="round" stroke-linejoin="round"/>
<path d="M44.2124 58.6501H11.0715" stroke="white" stroke-width="3" stroke-miterlimit="10" stroke-linecap="round" stroke-linejoin="round"/>
<path d="M45.5059 58.6501H64.2588C66.6837 58.6501 68.6237 56.7301 68.6237 54.3301V15.7701C68.6237 13.3701 66.6837 11.4501 64.2588 11.4501H10.91" stroke="white" stroke-width="3" stroke-miterlimit="10" stroke-linecap="round" stroke-linejoin="round"/>
<path d="M26.7535 58.6501H51.488" stroke="white" stroke-width="3" stroke-miterlimit="10" stroke-linecap="round" stroke-linejoin="round"/>
<path d="M29.1782 36.09H28.0466C27.3999 36.09 26.9149 35.61 26.9149 34.97V25.21C26.9149 24.57 27.3999 24.09 28.0466 24.09H29.1782" stroke="white" stroke-width="3" stroke-miterlimit="10" stroke-linecap="round" stroke-linejoin="round"/>
<path d="M37.5849 36.09H29.1785" stroke="white" stroke-width="3" stroke-miterlimit="10" stroke-linecap="round" stroke-linejoin="round"/>
<path d="M38.0696 36.09H42.9195C43.5662 36.09 44.0512 35.61 44.0512 34.97V25.21C44.0512 24.57 43.5662 24.09 42.9195 24.09H29.3398" stroke="white" stroke-width="3" stroke-miterlimit="10" stroke-linecap="round" stroke-linejoin="round"/>
<path d="M33.22 36.09H39.5248" stroke="white" stroke-width="3" stroke-miterlimit="10" stroke-linecap="round" stroke-linejoin="round"/>
<path d="M2.01855 29.53H26.9146" stroke="white" stroke-width="3" stroke-miterlimit="10" stroke-linecap="round" stroke-linejoin="round"/>
<path d="M44.0509 29.53H68.462" stroke="white" stroke-width="3" stroke-miterlimit="10" stroke-linecap="round" stroke-linejoin="round"/>
</g>
<defs>
<clipPath id="clip0">
<rect width="70" height="60" fill="white" transform="translate(0.401978 0.250061)"/>
</clipPath>
</defs>
</svg>
