<svg width="81" height="72" viewBox="0 0 81 72" fill="none" xmlns="http://www.w3.org/2000/svg">
<path d="M17.4761 64C13.1452 61.4604 11.1123 59.737 8.72595 55.474" stroke="white" stroke-width="3" stroke-miterlimit="10" stroke-linecap="round"/>
<path d="M23.4861 61.3697C23.221 61.1883 22.9558 61.0068 22.6907 60.8254C17.2108 58.3765 13.0567 53.5692 11.0239 49.1248" stroke="white" stroke-width="3" stroke-miterlimit="10" stroke-linecap="round"/>
<path d="M30.557 58.4671C28.7894 57.6508 30.7338 58.5578 28.7894 57.6508C22.1605 54.6576 15.3548 47.6734 13.7639 42.0499" stroke="white" stroke-width="3" stroke-miterlimit="10" stroke-linecap="round"/>
<path d="M12.173 66.1769C9.43305 64.9071 7.84212 63.4558 6.69312 60.8254" stroke="white" stroke-width="3" stroke-miterlimit="10" stroke-linecap="round"/>
<path d="M41.4284 53.8413L30.557 58.3764L23.4863 61.3696L17.3877 63.9093L12.173 66.0862L6.33958 68.5352C5.27896 69.1701 4.04157 68.1724 4.30673 66.9932L6.69312 60.7347L8.72597 55.3832L11.1124 49.2154L13.8523 41.9592L17.6528 31.8005" stroke="white" stroke-width="3" stroke-miterlimit="10" stroke-linecap="round"/>
<path d="M35.1522 42.2313C36.4702 42.2313 37.5386 41.1349 37.5386 39.7823C37.5386 38.4298 36.4702 37.3334 35.1522 37.3334C33.8342 37.3334 32.7658 38.4298 32.7658 39.7823C32.7658 41.1349 33.8342 42.2313 35.1522 42.2313Z" stroke="white" stroke-width="3" stroke-miterlimit="10" stroke-linecap="round"/>
<path d="M39.9258 33.7959C39.2187 34.1587 38.5116 34.3401 37.6278 34.3401C34.7995 34.3401 32.5898 31.9819 32.5898 29.1701C32.5898 28.898 32.5898 28.5351 32.6782 28.263C33.1202 25.8141 35.153 24 37.6278 24C40.4561 24 42.6657 26.3583 42.6657 29.1701C42.7541 31.1655 41.6051 32.8889 39.9258 33.7959Z" stroke="white" stroke-width="3" stroke-miterlimit="10" stroke-linecap="round"/>
<path d="M39.9257 33.7959C44.6985 39.0567 46.9965 45.678 45.0521 50.3039C42.5773 55.9274 34.6227 56.1996 27.1099 50.7574C19.6856 45.3152 15.5315 36.3356 18.0063 30.712C20.1275 25.9048 26.2261 24.9977 32.6782 28.2631C32.5898 28.5352 32.5898 28.898 32.5898 29.1701C32.5898 32.0726 34.8878 34.3401 37.6277 34.3401C38.5116 34.3401 39.2187 34.1587 39.9257 33.7959Z" stroke="white" stroke-width="3" stroke-miterlimit="10" stroke-linecap="round"/>
<path d="M59.0172 17.4694C61.0185 17.4694 62.6409 15.8044 62.6409 13.7506C62.6409 11.6967 61.0185 10.0317 59.0172 10.0317C57.0158 10.0317 55.3934 11.6967 55.3934 13.7506C55.3934 15.8044 57.0158 17.4694 59.0172 17.4694Z" stroke="white" stroke-width="3" stroke-miterlimit="10" stroke-linecap="round"/>
<path d="M40.9866 2.32202L42.7543 4.8617C42.8427 5.04311 43.0194 5.13381 43.1962 5.13381L46.2897 5.04311C46.7316 5.04311 46.9967 5.58733 46.7316 5.95014L44.9639 8.39912C44.8755 8.58053 44.8755 8.76193 44.8755 8.94334L45.9361 11.9365C46.1129 12.39 45.671 12.7529 45.229 12.6622L42.3123 11.5737C42.1356 11.483 41.9588 11.5737 41.782 11.6644L39.3956 13.5692C39.0421 13.8413 38.5118 13.5692 38.5118 13.1157V9.94107C38.5118 9.75966 38.4234 9.57826 38.2466 9.48755L35.6835 7.6735C35.3299 7.40139 35.4183 6.85717 35.8603 6.67576L38.777 5.85944C38.9537 5.76873 39.0421 5.67803 39.1305 5.49663L40.0143 2.50343C40.1911 2.04991 40.7214 1.86851 40.9866 2.32202Z" stroke="white" stroke-width="3" stroke-miterlimit="10" stroke-linecap="round"/>
<path d="M51.5036 25.1791L53.2712 26.3582C53.3596 26.4489 53.5364 26.4489 53.6248 26.3582L55.5693 25.5419C55.8344 25.4512 56.1879 25.7233 56.0996 25.9954L55.5693 28.0816C55.5693 28.1723 55.5693 28.3537 55.6576 28.4444L57.0718 30.077C57.2486 30.3492 57.1602 30.712 56.8066 30.712L54.6854 30.8027C54.597 30.8027 54.4203 30.8934 54.4203 30.9841L53.3596 32.7981C53.1829 33.0702 52.8293 33.0702 52.6526 32.7074L51.8571 30.712C51.7687 30.6213 51.6803 30.5306 51.5919 30.4399L49.5591 29.9863C49.2939 29.8956 49.2055 29.5328 49.3823 29.3514L50.9732 27.9909C51.0616 27.9002 51.15 27.8095 51.15 27.6281L50.9732 25.4512C50.8849 25.2698 51.2384 25.0884 51.5036 25.1791Z" stroke="white" stroke-width="3" stroke-miterlimit="10" stroke-linecap="round"/>
<path d="M21.1882 5.13385C23.221 8.94337 20.2159 13.932 17.2992 16.1996C15.5315 17.5602 13.2335 17.1066 12.88 14.567C12.7032 13.4785 13.0567 12.3901 13.6754 11.4831C15.0012 9.669 17.2992 8.85267 19.5088 9.03408C23.6629 9.48759 25.2539 13.5692 24.9887 17.4694C24.9003 18.9207 24.5468 20.4626 23.5745 21.5511C22.6907 22.5488 20.7462 23.4558 19.6856 22.186C19.2437 21.6418 19.1553 20.9162 19.4205 20.2812C19.5972 19.6463 20.1275 19.1928 20.6578 18.83C22.9559 17.288 26.4029 18.5579 26.8448 21.4604C27.2867 25.1792 25.8726 29.2608 23.8397 32.3447" stroke="white" stroke-width="3" stroke-miterlimit="10" stroke-linecap="round"/>
<path d="M37.0975 48.7619C38.9536 46.3129 41.7819 44.3174 44.4335 43.229C46.7315 42.2313 49.4714 42.1406 51.7694 43.1383C53.8907 44.0453 56.8074 47.0385 55.6584 49.8503C54.7745 52.1179 51.5043 52.4807 50.0901 50.6666C48.1456 48.0363 50.4437 44.8617 52.2997 43.229C53.9791 41.7778 56.0119 40.6893 58.1331 40.9614C61.5802 41.4149 63.7898 45.1338 67.1484 45.9501C70.6838 46.7664 73.8657 44.4081 76.6056 42.1406" stroke="white" stroke-width="3" stroke-miterlimit="10" stroke-linecap="round"/>
</svg>
