<svg width="65" height="66" viewBox="0 0 65 66" fill="none" xmlns="http://www.w3.org/2000/svg">
<g clip-path="url(#clip0)">
<path d="M31.6522 65.7925C30.8278 65.7925 30.1534 65.1193 30.1534 64.2965C30.1534 62.5761 30.603 61.6786 30.9777 60.9306C31.2775 60.3322 31.5023 59.8834 31.5023 58.8362C31.5023 57.789 31.2775 57.3402 30.9777 56.7419C30.603 55.9939 30.1534 55.0963 30.1534 53.3759C30.1534 51.8051 30.5281 50.9076 30.9028 50.2344L31.4274 49.1872H29.1042C28.2798 49.1872 27.6054 48.514 27.6054 47.6912C27.6054 45.5969 27.8302 43.9513 28.3548 42.6797L28.6545 42.0065L27.9801 41.7073C27.2306 41.3333 26.4063 40.9593 25.6569 40.4357L25.1323 40.0618L24.6826 40.4357C23.4086 41.5577 22.1346 42.4553 20.7857 43.0537L20.1112 43.4277L20.336 44.1009C20.7107 45.1481 20.9356 46.7188 20.9356 48.514C20.9356 48.888 20.7857 49.262 20.4859 49.5612C20.1862 49.8604 19.8114 50.01 19.4367 50.01H18.5374L18.3876 50.5336C18.2377 51.132 18.0129 51.5807 17.788 51.8799C17.4883 52.4035 17.2634 52.7775 17.2634 53.6751C17.2634 54.5727 17.4883 54.8719 17.7131 55.4703C18.0878 56.1435 18.5374 57.041 18.5374 58.6118C18.5374 60.1826 18.0878 61.0802 17.7131 61.7534C17.4133 62.2769 17.1885 62.6509 17.1885 63.5485C17.1885 64.3713 16.514 65.0445 15.6897 65.0445C14.8653 65.0445 14.1908 64.3713 14.1908 63.5485C14.1908 61.9778 14.6405 61.0802 15.0152 60.407C15.315 59.8834 15.5398 59.5094 15.5398 58.6118C15.5398 57.789 15.315 57.415 15.0901 56.8166C14.7154 56.1435 14.2658 55.2459 14.2658 53.6751C14.2658 52.4035 14.5655 51.5807 14.7904 51.0572L15.315 50.01H13.4414C12.6171 50.01 11.9426 49.3368 11.9426 48.514C11.9426 46.7188 12.1674 45.2229 12.5421 44.1009L12.7669 43.4277L12.3922 43.2033C9.69435 42.0065 7.14634 39.5382 4.97304 36.247C2.12526 31.8339 0.401611 26.4484 0.401611 22.1101C0.401611 13.2091 7.67093 5.95359 16.589 5.95359C17.4133 5.95359 18.3126 6.02838 19.137 6.17798L19.5117 6.25278L19.8114 5.95359C23.1089 2.66245 27.6054 0.79248 32.3267 0.79248C37.048 0.79248 41.5445 2.66245 44.8419 5.95359L45.1417 6.25278L45.5164 6.17798C46.4157 6.02838 47.315 5.95359 48.2892 5.95359C57.2072 5.95359 64.4765 13.2091 64.4765 22.1101C64.4765 26.4484 62.7529 31.9087 59.9051 36.247C57.7318 39.613 55.1838 42.0065 52.4859 43.2033L51.8114 43.4277L52.0363 44.1009C52.411 45.1481 52.6358 46.7188 52.6358 48.514C52.6358 49.3368 51.9613 49.9352 51.137 49.9352H50.2377L50.0878 50.4588C49.9379 51.0572 49.7131 51.4311 49.4883 51.8051C49.1885 52.4035 48.9637 52.7775 48.9637 53.6003C48.9637 54.4231 49.1135 54.7971 49.4883 55.3955C49.863 56.0687 50.3126 56.9662 50.3126 58.537C50.3126 60.1078 49.863 61.0054 49.4883 61.6786C49.1885 62.2769 48.9637 62.6509 48.9637 63.4737C48.9637 64.2965 48.2892 64.9697 47.4648 64.9697C46.6405 64.9697 45.966 64.2965 45.966 63.4737C45.966 61.903 46.4157 61.0054 46.7904 60.3322C47.0901 59.8086 47.315 59.4346 47.315 58.537C47.315 57.6394 47.0901 57.3402 46.7904 56.7419C46.5655 56.1435 46.1159 55.2459 46.1159 53.6751C46.1159 52.4035 46.4157 51.5807 46.6405 51.0572L47.1651 50.01H45.2915C44.4672 50.01 43.7927 49.3368 43.7927 48.514C43.7927 46.644 44.0175 45.2229 44.3922 44.1009L44.6171 43.4277L44.0175 43.1285C42.6686 42.5301 41.3196 41.6325 40.0456 40.361L39.596 39.9122L39.0714 40.2862C38.247 40.8845 37.4227 41.3333 36.5983 41.7073L35.9239 42.0065L36.2236 42.6797C36.6733 43.8765 36.973 45.5969 36.973 47.6912C36.973 48.514 36.2986 49.1124 35.4742 49.1124H34.2751L34.1253 49.7108C33.9754 50.384 33.7506 50.8328 33.5257 51.2815C33.226 51.8799 33.0011 52.3287 33.0011 53.3759C33.0011 54.4231 33.226 54.8719 33.5257 55.4703C33.9004 56.2183 34.3501 57.1158 34.3501 58.8362C34.3501 60.5566 33.9004 61.4542 33.5257 62.2021C33.226 62.8005 33.0011 63.2493 33.0011 64.2965C33.0761 65.1193 32.4016 65.7925 31.6522 65.7925ZM48.0644 44.1009L47.7646 44.1757L47.6147 44.3253C47.4648 44.4749 47.0901 44.9985 46.9402 46.1952L46.7904 47.0928H49.7131L49.5632 46.1952C49.3384 44.9985 49.0386 44.5497 48.8887 44.3253L48.6639 44.1757L48.3641 44.1009H48.1393H48.0644ZM16.3641 44.1009L16.1393 44.1757L15.9894 44.3253C15.8395 44.4749 15.4648 44.9985 15.315 46.1952L15.1651 47.0928H18.0878L17.9379 46.1952C17.7131 44.9985 17.4133 44.5497 17.2634 44.3253L17.0386 44.1757L16.7388 44.1009H16.514H16.3641ZM32.3267 42.6797C31.877 42.6797 31.5773 42.8293 31.2775 43.3529C30.9777 43.8017 30.7529 44.5497 30.678 45.4473L30.5281 46.27H34.0503L33.9004 45.4473C33.7506 44.5497 33.6007 43.8017 33.3009 43.3529C33.0761 42.9041 32.7763 42.6797 32.3267 42.6797ZM47.8395 9.99271C49.2634 12.6107 50.0128 15.5278 50.0128 18.5198C50.0128 24.728 46.8653 32.5819 42.2939 37.5186L41.7693 38.0422L42.3688 38.5658C44.3173 40.2862 46.2658 41.1837 48.2143 41.1837C55.4086 41.1837 61.4789 29.4404 61.4789 22.1101C61.4789 15.0042 55.6335 9.02033 48.514 8.87073H47.24L47.8395 9.99271ZM16.0644 8.87073C8.94494 9.16993 3.32433 14.9294 3.32433 22.0353C3.32433 29.4404 9.39458 41.1837 16.589 41.1837C18.4625 41.1837 20.411 40.361 22.2845 38.7154L22.884 38.1918L22.3595 37.5934C17.863 32.7315 14.5655 24.6532 14.5655 18.445C14.5655 15.453 15.315 12.5359 16.7388 9.91791L17.3384 8.79593L16.0644 8.87073ZM32.3267 3.70963C24.158 3.70963 17.4883 10.3667 17.4883 18.5198C17.4883 22.7085 19.2869 28.1688 21.9847 32.4323C24.9824 37.0698 28.7295 39.7626 32.2517 39.7626C35.774 39.7626 39.521 37.0698 42.5187 32.4323C45.2915 28.1688 47.0152 22.7085 47.0152 18.5198C47.0901 10.3667 40.4203 3.70963 32.3267 3.70963Z" fill="white"/>
</g>
<defs>
<clipPath id="clip0">
<rect width="64" height="65" fill="white" transform="translate(0.401611 0.79248)"/>
</clipPath>
</defs>
</svg>
