<svg width="67" height="64" viewBox="0 0 67 64" fill="none" xmlns="http://www.w3.org/2000/svg">
<g clip-path="url(#clip0)">
<path d="M61.7136 22.6203C61.7136 22.6203 45.6244 38.6858 40.6827 43.6203C28.0412 38.6858 22.8697 25.8334 22.8697 25.8334L43.9006 4.71863" stroke="white" stroke-width="3" stroke-miterlimit="10" stroke-linecap="round" stroke-linejoin="round"/>
<path d="M34.1012 40.6895L12.6414 61.9807" stroke="white" stroke-width="3" stroke-miterlimit="10" stroke-linecap="round" stroke-linejoin="round"/>
<path d="M30.914 37.194C29.3051 38.112 26.8917 39.1448 24.3634 38.571C20.1113 37.653 19.1919 33.1776 15.0546 32.03C13.3308 31.571 10.8025 31.571 7.12497 33.8661" stroke="white" stroke-width="3" stroke-miterlimit="10" stroke-linecap="round" stroke-linejoin="round"/>
<path d="M65.621 1.50551L41.3723 1.276L65.8508 25.7186L65.621 1.50551Z" stroke="white" stroke-width="3" stroke-miterlimit="10" stroke-linecap="round" stroke-linejoin="round"/>
<path d="M46.9275 19.092L45.3684 23.7625L48.2917 27.6546H43.2246L40.4961 31.5467L39.1319 26.8761L34.4545 25.5139L38.3523 22.5948V17.7297L42.2501 20.6488L46.9275 19.092Z" stroke="white" stroke-width="3" stroke-miterlimit="10" stroke-linecap="round" stroke-linejoin="round"/>
<path d="M3.79257 28.2432L5.17165 29.9645" stroke="white" stroke-width="3" stroke-miterlimit="10" stroke-linecap="round" stroke-linejoin="round"/>
<path d="M1.14923 32.6038L3.33276 32.948" stroke="white" stroke-width="3" stroke-miterlimit="10" stroke-linecap="round" stroke-linejoin="round"/>
<path d="M2.41339 37.5383L4.13723 36.276" stroke="white" stroke-width="3" stroke-miterlimit="10" stroke-linecap="round" stroke-linejoin="round"/>
<path d="M6.78046 40.2924L7.0103 38.1121" stroke="white" stroke-width="3" stroke-miterlimit="10" stroke-linecap="round" stroke-linejoin="round"/>
<path d="M11.7219 39.03L10.4577 37.3087" stroke="white" stroke-width="3" stroke-miterlimit="10" stroke-linecap="round" stroke-linejoin="round"/>
</g>
<defs>
<clipPath id="clip0">
<rect width="67" height="63" fill="white" transform="translate(0 0.128418)"/>
</clipPath>
</defs>
</svg>
