<svg width="81" height="73" viewBox="0 0 81 73" fill="none" xmlns="http://www.w3.org/2000/svg">
<path d="M17.4756 64.5001C13.1447 61.9604 11.1119 60.237 8.72546 55.974" stroke="white" stroke-width="3" stroke-miterlimit="10" stroke-linecap="round"/>
<path d="M23.4856 61.8698C23.2204 61.6884 22.9553 61.507 22.6901 61.3256C17.2103 58.8766 13.0562 54.0693 11.0233 49.6249" stroke="white" stroke-width="3" stroke-miterlimit="10" stroke-linecap="round"/>
<path d="M30.5566 58.9672C28.7889 58.1508 30.7333 59.0579 28.7889 58.1508C22.16 55.1576 15.3544 48.1735 13.7634 42.5499" stroke="white" stroke-width="3" stroke-miterlimit="10" stroke-linecap="round"/>
<path d="M12.1725 66.6769C9.43256 65.4071 7.84163 63.9558 6.69263 61.3254" stroke="white" stroke-width="3" stroke-miterlimit="10" stroke-linecap="round"/>
<path d="M41.4279 54.3414L30.5566 58.8765L23.4858 61.8697L17.3872 64.4094L12.1725 66.5862L6.33909 69.0352C5.27847 69.6702 4.04109 68.6724 4.30624 67.4933L6.69263 61.2348L8.72548 55.8833L11.1119 49.7155L13.8518 42.4593L17.6524 32.3005" stroke="white" stroke-width="3" stroke-miterlimit="10" stroke-linecap="round"/>
<path d="M35.1518 42.7314C36.4697 42.7314 37.5382 41.635 37.5382 40.2825C37.5382 38.9299 36.4697 37.8335 35.1518 37.8335C33.8338 37.8335 32.7654 38.9299 32.7654 40.2825C32.7654 41.635 33.8338 42.7314 35.1518 42.7314Z" stroke="white" stroke-width="3" stroke-miterlimit="10" stroke-linecap="round"/>
<path d="M39.9253 34.296C39.2182 34.6589 38.5111 34.8403 37.6273 34.8403C34.799 34.8403 32.5894 32.482 32.5894 29.6702C32.5894 29.3981 32.5894 29.0353 32.6777 28.7632C33.1197 26.3142 35.1525 24.5001 37.6273 24.5001C40.4556 24.5001 42.6652 26.8584 42.6652 29.6702C42.7536 31.6657 41.6046 33.389 39.9253 34.296Z" stroke="white" stroke-width="3" stroke-miterlimit="10" stroke-linecap="round"/>
<path d="M39.9253 34.2961C44.698 39.5568 46.9961 46.1781 45.0516 50.804C42.5768 56.4276 34.6222 56.6997 27.1094 51.2575C19.6851 45.8153 15.531 36.8357 18.0058 31.2122C20.127 26.4049 26.2256 25.4979 32.6777 28.7632C32.5893 29.0353 32.5893 29.3981 32.5893 29.6702C32.5893 32.5727 34.8873 34.8403 37.6273 34.8403C38.5111 34.8403 39.2182 34.6589 39.9253 34.2961Z" stroke="white" stroke-width="3" stroke-miterlimit="10" stroke-linecap="round"/>
<path d="M59.0166 17.9695C61.018 17.9695 62.6404 16.3045 62.6404 14.2507C62.6404 12.1968 61.018 10.5319 59.0166 10.5319C57.0152 10.5319 55.3928 12.1968 55.3928 14.2507C55.3928 16.3045 57.0152 17.9695 59.0166 17.9695Z" stroke="white" stroke-width="3" stroke-miterlimit="10" stroke-linecap="round"/>
<path d="M40.9861 2.82214L42.7538 5.36183C42.8422 5.54323 43.0189 5.63394 43.1957 5.63394L46.2892 5.54323C46.7311 5.54323 46.9963 6.08745 46.7311 6.45026L44.9634 8.89924C44.875 9.08065 44.875 9.26205 44.875 9.44346L45.9356 12.4367C46.1124 12.8902 45.6705 13.253 45.2286 13.1623L42.3119 12.0738C42.1351 11.9831 41.9583 12.0738 41.7816 12.1645L39.3952 14.0693C39.0416 14.3414 38.5113 14.0693 38.5113 13.6158V10.4412C38.5113 10.2598 38.4229 10.0784 38.2462 9.98768L35.683 8.17362C35.3295 7.90151 35.4178 7.35729 35.8598 7.17589L38.7765 6.35956C38.9532 6.26886 39.0416 6.17815 39.13 5.99675L40.0139 3.00355C40.1906 2.55004 40.7209 2.36863 40.9861 2.82214Z" stroke="white" stroke-width="3" stroke-miterlimit="10" stroke-linecap="round"/>
<path d="M51.5031 25.6793L53.2708 26.8584C53.3592 26.9491 53.536 26.9491 53.6244 26.8584L55.5688 26.0421C55.834 25.9514 56.1875 26.2235 56.0991 26.4956L55.5688 28.5818C55.5688 28.6725 55.5688 28.8539 55.6572 28.9446L57.0714 30.5772C57.2481 30.8493 57.1598 31.2122 56.8062 31.2122L54.685 31.3029C54.5966 31.3029 54.4198 31.3936 54.4198 31.4843L53.3592 33.2983C53.1824 33.5704 52.8289 33.5704 52.6521 33.2076L51.8567 31.2122C51.7683 31.1214 51.6799 31.0307 51.5915 30.94L49.5587 30.4865C49.2935 30.3958 49.2051 30.033 49.3819 29.8516L50.9728 28.4911C51.0612 28.4004 51.1496 28.3097 51.1496 28.1283L50.9728 25.9514C50.8844 25.77 51.238 25.5886 51.5031 25.6793Z" stroke="white" stroke-width="3" stroke-miterlimit="10" stroke-linecap="round"/>
<path d="M21.1877 5.63391C23.2205 9.44343 20.2154 14.4321 17.2987 16.6997C15.531 18.0602 13.233 17.6067 12.8795 15.067C12.7027 13.9786 13.0563 12.8901 13.675 11.9831C15.0007 10.1691 17.2987 9.35273 19.5084 9.53414C23.6624 9.98765 25.2534 14.0693 24.9882 17.9695C24.8998 19.4208 24.5463 20.9627 23.5741 22.0511C22.6902 23.0489 20.7457 23.9559 19.6851 22.6861C19.2432 22.1418 19.1548 21.4162 19.42 20.7813C19.5967 20.1464 20.1271 19.6929 20.6574 19.3301C22.9554 17.7881 26.4024 19.0579 26.8443 21.9604C27.2862 25.6793 25.8721 29.7609 23.8392 32.8448" stroke="white" stroke-width="3" stroke-miterlimit="10" stroke-linecap="round"/>
<path d="M37.097 49.262C38.9531 46.813 41.7814 44.8176 44.433 43.7291C46.731 42.7314 49.4709 42.6407 51.7689 43.6384C53.8902 44.5454 56.8069 47.5386 55.6579 50.3504C54.774 52.618 51.5038 52.9808 50.0896 51.1668C48.1452 48.5364 50.4432 45.3618 52.2992 43.7291C53.9786 42.2779 56.0114 41.1894 58.1327 41.4616C61.5797 41.9151 63.7893 45.6339 67.1479 46.4502C70.6833 47.2665 73.8652 44.9083 76.6051 42.6407" stroke="white" stroke-width="3" stroke-miterlimit="10" stroke-linecap="round"/>
</svg>
