<svg width="76" height="54" viewBox="0 0 76 54" fill="none" xmlns="http://www.w3.org/2000/svg">
<path d="M5.18013 16.7895L36.2843 3.6073L67.8562 16.7895C68.4799 17.0235 68.4799 17.9595 67.8562 18.1935L36.5182 32.8577L15.2364 22.8736L5.18013 18.1935C4.55649 17.8815 4.55649 17.0235 5.18013 16.7895Z" stroke="white" stroke-width="3" stroke-miterlimit="10" stroke-linecap="round"/>
<path d="M68.3243 18.1935V35.7437" stroke="white" stroke-width="3" stroke-miterlimit="10" stroke-linecap="round"/>
<path d="M71.2867 41.9839C71.2867 43.6219 69.9614 45.0259 68.2464 45.0259C66.5314 45.0259 65.2062 43.6999 65.2062 41.9839C65.2062 40.2678 68.2464 35.7438 68.2464 35.7438C68.2464 35.7438 71.2867 40.3458 71.2867 41.9839Z" stroke="white" stroke-width="3" stroke-miterlimit="10" stroke-linecap="round"/>
<path d="M15.4709 22.8735V39.6438L36.5189 49.2379L58.3464 39.6438V22.6395" stroke="white" stroke-width="3" stroke-miterlimit="10" stroke-linecap="round"/>
</svg>
