<svg width="63" height="82" viewBox="0 0 63 82" fill="none" xmlns="http://www.w3.org/2000/svg">
<g clip-path="url(#clip0)">
<path d="M31.6666 61.2692C37.6656 61.2692 42.5287 55.8957 42.5287 49.2672C42.5287 42.6386 37.6656 37.2651 31.6666 37.2651C25.6677 37.2651 20.8046 42.6386 20.8046 49.2672C20.8046 55.8957 25.6677 61.2692 31.6666 61.2692Z" stroke="white" stroke-width="3" stroke-miterlimit="10" stroke-linecap="round" stroke-linejoin="round"/>
<path d="M44.5341 64.7942C44.5341 62.8638 43.4479 61.2692 42.1945 61.2692H21.1388C19.802 61.2692 18.7993 62.8638 18.7993 64.7942V80.741H44.6176V64.7942H44.5341Z" stroke="white" stroke-width="3" stroke-miterlimit="10" stroke-linecap="round" stroke-linejoin="round"/>
<path d="M41.1083 37.517C43.1136 35.3348 45.7873 33.908 48.7953 33.908C54.8112 33.908 59.6573 39.2795 59.6573 45.91C59.6573 52.5405 54.8112 57.9121 48.7953 57.9121" stroke="white" stroke-width="3" stroke-miterlimit="10" stroke-linecap="round" stroke-linejoin="round"/>
<path d="M48.4611 77.3838H61.6627V61.4371C61.6627 59.5067 60.5765 57.912 59.3232 57.912H42.6123" stroke="white" stroke-width="3" stroke-miterlimit="10" stroke-linecap="round" stroke-linejoin="round"/>
<path d="M21.8908 37.6008C19.8855 35.4186 17.2118 33.9918 14.2038 33.9918C8.18789 33.9918 3.34174 39.3634 3.34174 45.9939C3.34174 52.6244 8.18789 57.9959 14.2038 57.9959" stroke="white" stroke-width="3" stroke-miterlimit="10" stroke-linecap="round" stroke-linejoin="round"/>
<path d="M14.4545 77.4677H1.25287V61.5209C1.25287 59.5905 2.33908 57.9958 3.59239 57.9958H20.3868" stroke="white" stroke-width="3" stroke-miterlimit="10" stroke-linecap="round" stroke-linejoin="round"/>
<path d="M31.1653 9.06458C26.8205 9.06458 23.3948 12.5897 23.3948 16.8701C23.3948 19.7237 24.9823 22.2416 27.2383 23.5845V28.2846H35.0924V23.5845C37.3484 22.2416 38.9359 19.7237 38.9359 16.8701C38.9359 12.5057 35.4266 9.06458 31.1653 9.06458Z" stroke="white" stroke-width="3" stroke-miterlimit="10" stroke-linecap="round" stroke-linejoin="round"/>
<path d="M27.2383 32.2293H29.4108H32.8365H35.0925V28.3685H27.2383V32.2293Z" stroke="white" stroke-width="3" stroke-miterlimit="10" stroke-linecap="round" stroke-linejoin="round"/>
<path d="M19.8856 17.7094H15.123" stroke="white" stroke-width="3" stroke-miterlimit="10" stroke-linecap="round" stroke-linejoin="round"/>
<path d="M31.1654 5.37162V1.25903" stroke="white" stroke-width="3" stroke-miterlimit="10" stroke-linecap="round" stroke-linejoin="round"/>
<path d="M42.863 17.7094H46.6229" stroke="white" stroke-width="3" stroke-miterlimit="10" stroke-linecap="round" stroke-linejoin="round"/>
<path d="M20.3869 8.39306L17.4625 5.53943" stroke="white" stroke-width="3" stroke-miterlimit="10" stroke-linecap="round" stroke-linejoin="round"/>
<path d="M44.2835 5.53943L41.4426 8.39306" stroke="white" stroke-width="3" stroke-miterlimit="10" stroke-linecap="round" stroke-linejoin="round"/>
</g>
<defs>
<clipPath id="clip0">
<rect width="63" height="82" fill="white" transform="translate(-0.000427246 0.00012207)"/>
</clipPath>
</defs>
</svg>
