<svg width="67" height="53" viewBox="0 0 67 53" fill="none" xmlns="http://www.w3.org/2000/svg">
<g clip-path="url(#clip0)">
<path d="M57.8273 51.7649H24.4894" stroke="white" stroke-width="3" stroke-miterlimit="10" stroke-linecap="round"/>
<path d="M9.2843 1.12292H50.2809C54.4481 1.12292 57.9396 4.49157 57.9396 8.75852V44.1293" stroke="white" stroke-width="3" stroke-miterlimit="10" stroke-linecap="round"/>
<path d="M16.8303 8.75852H1.62549C1.62549 4.60386 5.00433 1.12292 9.28419 1.12292C13.5641 1.12292 16.8303 4.49157 16.8303 8.75852ZM16.8303 8.75852V44.1293C16.8303 48.2839 20.2091 51.8772 24.3763 51.8772C28.5436 51.8772 32.035 48.2839 32.035 44.1293H65.3729C65.3729 48.2839 61.9941 51.8772 57.7142 51.8772" stroke="white" stroke-width="3" stroke-miterlimit="10" stroke-linecap="round"/>
<path d="M25.2774 15.8328H49.3798" stroke="white" stroke-width="3" stroke-miterlimit="10" stroke-linecap="round"/>
<path d="M25.2774 15.8328H49.3798" stroke="white" stroke-width="3" stroke-miterlimit="10" stroke-linecap="round"/>
<path d="M25.2774 23.8052H49.3798" stroke="white" stroke-width="3" stroke-miterlimit="10" stroke-linecap="round"/>
<path d="M25.2774 31.8899H41.8337" stroke="white" stroke-width="3" stroke-miterlimit="10" stroke-linecap="round"/>
</g>
<defs>
<clipPath id="clip0">
<rect width="66" height="53" fill="white" transform="translate(0.499146 0.00012207)"/>
</clipPath>
</defs>
</svg>
