<svg width="63" height="67" viewBox="0 0 63 67" fill="none" xmlns="http://www.w3.org/2000/svg">
<path d="M57.5706 30.7205C57.5706 17.1181 46.5436 6.09113 32.9412 6.09113C19.3388 6.09113 8.31189 17.1181 8.31189 30.7205" stroke="white" stroke-width="3"/>
<path d="M48.3347 26.8724C48.3347 18.796 42.1321 12.2488 34.4807 12.2488" stroke="white" stroke-width="3"/>
<rect x="4.83167" y="31.856" width="55.8572" height="5.14946" stroke="white" stroke-width="3"/>
<path d="M38.6461 7.08727C38.6461 4.08672 36.0109 1.6543 32.7604 1.6543C29.5098 1.6543 26.8746 4.08672 26.8746 7.08727" stroke="white" stroke-width="3"/>
<g clip-path="url(#clip0)">
<path d="M12.4562 46.2436L17.4856 42.3045C17.9427 41.9142 18.7885 41.6289 19.4585 41.5209L20.4814 41.4118C21.0458 41.3395 22.0345 41.478 22.6003 41.7592L24.6865 42.7078C25.2524 42.989 26.2054 43.0215 26.7697 42.9492L29.5898 42.2338C30.1184 42.0555 31.1056 41.8405 31.7756 41.7325L33.2914 41.3392C33.8199 41.1608 34.8786 41.1578 35.5144 41.2973L35.7259 41.226C36.3617 41.3656 37.1048 41.823 37.4949 42.2815L38.3468 43.4105C38.737 43.8689 39.4085 44.1145 39.9713 43.6886L48.9822 38.2882C49.475 38.0039 50.4265 37.6829 50.9908 37.6106L51.6608 37.5025C52.2252 37.4302 53.1439 37.7104 53.5341 38.1689L54.2072 38.768C54.7031 39.1908 54.9533 39.9325 54.8849 40.4277C54.8164 40.9229 54.3609 41.6667 53.9038 42.057L39.9426 53.3762C39.4855 53.7665 38.6056 54.2994 38.077 54.4777L37.1613 54.9047C36.6327 55.083 35.6813 55.404 34.9755 55.406L15.9595 56.6282" stroke="white" stroke-width="3" stroke-miterlimit="10" stroke-linecap="round" stroke-linejoin="round"/>
<path d="M22.9139 48.971L32.4748 48.3421C33.0391 48.2698 33.9906 47.9488 34.4834 47.6645L39.3029 44.1502" stroke="white" stroke-width="3" stroke-miterlimit="10" stroke-linecap="round" stroke-linejoin="round"/>
<path d="M16.0882 61.8959C16.3027 62.5317 16.0228 63.0982 15.3885 63.3122L10.737 64.8814C10.2084 65.0597 9.53687 64.8142 9.32238 64.1784L2.38727 43.6213C2.20853 43.0915 2.55836 42.3833 3.08694 42.205L7.73843 40.6358C8.37272 40.4218 8.97432 40.809 9.15306 41.3388L16.0882 61.8959Z" stroke="white" stroke-width="3" stroke-miterlimit="10" stroke-linecap="round" stroke-linejoin="round"/>
</g>
<defs>
<clipPath id="clip0">
<rect width="53.107" height="26.1687" fill="white" transform="translate(0.615234 41.8586) rotate(-18.6423)"/>
</clipPath>
</defs>
</svg>
