<svg width="94" height="75" viewBox="0 0 94 75" fill="none" xmlns="http://www.w3.org/2000/svg">
<path d="M81.6488 73.2522H34.1676" stroke="#F06838" stroke-width="3" stroke-miterlimit="10" stroke-linecap="round"/>
<path d="M12.512 1.58899H70.9011C76.8363 1.58899 81.809 6.35594 81.809 12.3941V62.447" stroke="#F06838" stroke-width="3" stroke-miterlimit="10" stroke-linecap="round"/>
<path d="M23.2592 12.3941H1.60394C1.60394 6.51484 6.41623 1.58899 12.5118 1.58899C18.6074 1.58899 23.2592 6.35594 23.2592 12.3941ZM23.2592 12.3941V62.447C23.2592 68.3263 28.0715 73.411 34.0067 73.411C39.9418 73.411 44.9145 68.3263 44.9145 62.447H92.3958C92.3958 68.3263 87.5835 73.411 81.4879 73.411" stroke="#F06838" stroke-width="3" stroke-miterlimit="10" stroke-linecap="round"/>
<path d="M35.2899 22.4047H69.6175" stroke="#444444" stroke-width="3" stroke-miterlimit="10" stroke-linecap="round"/>
<path d="M35.2899 22.4047H69.6175" stroke="#F47D39" stroke-width="3" stroke-miterlimit="10" stroke-linecap="round"/>
<path d="M35.2899 33.6865H69.6175" stroke="#F47D39" stroke-width="3" stroke-miterlimit="10" stroke-linecap="round"/>
<path d="M35.2899 45.1271H58.8701" stroke="#F47D39" stroke-width="3" stroke-miterlimit="10" stroke-linecap="round"/>
</svg>
