<svg width="16" height="16" viewBox="0 0 16 16" fill="none" xmlns="http://www.w3.org/2000/svg">
<path d="M10.4736 0.591553H4.91682C2.35975 0.591553 0.286133 2.66517 0.286133 5.22224V10.7791C0.286133 13.3361 2.35975 15.4097 4.91682 15.4097H10.4736C13.0307 15.4097 15.1043 13.3361 15.1043 10.7791V5.22224C15.1043 2.66517 13.0307 0.591553 10.4736 0.591553ZM13.7151 10.7791C13.7151 12.5665 12.2611 14.0205 10.4736 14.0205H4.91682C3.12937 14.0205 1.67534 12.5665 1.67534 10.7791V5.22224C1.67534 3.43479 3.12937 1.98076 4.91682 1.98076H10.4736C12.2611 1.98076 13.7151 3.43479 13.7151 5.22224V10.7791Z" fill="#4A4949"/>
<path d="M7.69478 4.29614C5.64895 4.29614 3.99023 5.95485 3.99023 8.00069C3.99023 10.0465 5.64895 11.7052 7.69478 11.7052C9.74062 11.7052 11.3993 10.0465 11.3993 8.00069C11.3993 5.95485 9.74062 4.29614 7.69478 4.29614ZM7.69478 10.316C6.41857 10.316 5.37944 9.27691 5.37944 8.00069C5.37944 6.72355 6.41857 5.68535 7.69478 5.68535C8.971 5.68535 10.0101 6.72355 10.0101 8.00069C10.0101 9.27691 8.971 10.316 7.69478 10.316Z" fill="#4A4949"/>
<path d="M11.6772 4.51216C11.9498 4.51216 12.1709 4.29116 12.1709 4.01853C12.1709 3.74591 11.9498 3.5249 11.6772 3.5249C11.4046 3.5249 11.1836 3.74591 11.1836 4.01853C11.1836 4.29116 11.4046 4.51216 11.6772 4.51216Z" fill="#4A4949"/>
</svg>
