<svg width="272" height="81" viewBox="0 0 272 81" fill="none" xmlns="http://www.w3.org/2000/svg">
<g clip-path="url(#clip0)">
<path fill-rule="evenodd" clip-rule="evenodd" d="M44.6841 72.1572L47.9555 42.4795L26.7656 64.3472L44.6841 72.1572Z" fill="#EF792C"/>
<path fill-rule="evenodd" clip-rule="evenodd" d="M21.5615 50.8845L47.9559 42.4795L26.7661 64.3473L21.5615 50.8845Z" fill="#F39151"/>
<path fill-rule="evenodd" clip-rule="evenodd" d="M44.6845 72.1571L26.766 64.3472L18.8105 79.0001L44.6845 72.1571Z" fill="#FAB74D"/>
<path fill-rule="evenodd" clip-rule="evenodd" d="M26.766 64.3473L18.8105 79.0002L21.5615 50.8845L26.766 64.3473Z" fill="#FFE700"/>
<path fill-rule="evenodd" clip-rule="evenodd" d="M49.1455 42.405L70.8558 47.8348L65.2796 57.5042L49.1455 42.405Z" fill="#E73526"/>
<path fill-rule="evenodd" clip-rule="evenodd" d="M70.0377 64.124L70.8556 47.8347L65.2793 57.5041L70.0377 64.124Z" fill="#D43025"/>
<path fill-rule="evenodd" clip-rule="evenodd" d="M49.1455 42.405L65.2796 57.5042L53.1604 63.3059L49.1455 42.405Z" fill="#C50147"/>
<path fill-rule="evenodd" clip-rule="evenodd" d="M65.2793 57.5042L53.1602 63.3058L70.0377 64.124L65.2793 57.5042Z" fill="#EA6289"/>
<path fill-rule="evenodd" clip-rule="evenodd" d="M2.00781 -2L38.96 7.66942L17.9932 12.6529L2.00781 -2Z" fill="#9FD8EC"/>
<path fill-rule="evenodd" clip-rule="evenodd" d="M47.7333 40.9917L38.96 7.66943L17.9932 12.6529L47.7333 40.9917Z" fill="#62C5E3"/>
<path fill-rule="evenodd" clip-rule="evenodd" d="M2.00746 -2L17.9928 12.6529L0 29.6116L2.00746 -2Z" fill="#00B3CA"/>
<path fill-rule="evenodd" clip-rule="evenodd" d="M17.9928 12.6528L0 29.6115L15.6879 42.2561L17.9928 12.6528Z" fill="#0082B9"/>
<path fill-rule="evenodd" clip-rule="evenodd" d="M47.7325 40.9917L15.6875 42.2561L17.9924 12.6528L47.7325 40.9917Z" fill="#01559D"/>
<path fill-rule="evenodd" clip-rule="evenodd" d="M76.655 6.55371L59.7031 13.0248L68.2534 17.0413L76.655 6.55371Z" fill="#C5C2E2"/>
<path fill-rule="evenodd" clip-rule="evenodd" d="M48.9971 40.9172L59.7035 13.0247L68.2538 17.0412L48.9971 40.9172Z" fill="#A6A3D1"/>
<path fill-rule="evenodd" clip-rule="evenodd" d="M76.6555 6.55371L68.2539 17.0413L80.8935 28.4959L76.6555 6.55371Z" fill="#AF88BD"/>
<path fill-rule="evenodd" clip-rule="evenodd" d="M68.2539 17.0413L80.8935 28.4958L72.938 38.3884L68.2539 17.0413Z" fill="#8C5CA2"/>
<path fill-rule="evenodd" clip-rule="evenodd" d="M48.9971 40.9173L72.9379 38.3884L68.2538 17.0413L48.9971 40.9173Z" fill="#7A4895"/>
<path fill-rule="evenodd" clip-rule="evenodd" d="M57.4728 3.95031L43.0488 1.42139L51.153 8.71064L57.4728 3.95031Z" fill="#B5D8AD"/>
<path fill-rule="evenodd" clip-rule="evenodd" d="M49.3691 26.7851L57.4733 3.95044L51.1536 8.71077L49.3691 26.7851Z" fill="#56B469"/>
<path fill-rule="evenodd" clip-rule="evenodd" d="M49.3686 26.785L51.153 8.71064L43.0488 1.42139L49.3686 26.785Z" fill="#00988F"/>
<path fill-rule="evenodd" clip-rule="evenodd" d="M266.647 30.9422L264.714 38.6033L270.588 29.6777L266.647 30.9422Z" fill="#4A4949"/>
<path fill-rule="evenodd" clip-rule="evenodd" d="M264.714 38.6033L266.647 30.9422L264.193 29.6777L264.714 38.6033Z" fill="#898989"/>
<path fill-rule="evenodd" clip-rule="evenodd" d="M266.647 30.9422L264.193 29.6777H270.587L266.647 30.9422Z" fill="#D9DADA"/>
<path fill-rule="evenodd" clip-rule="evenodd" d="M115.715 32.9504C115.715 32.281 115.418 31.9835 115.121 31.8347C114.898 31.7603 114.749 31.686 114.749 31.6116C114.749 31.5372 114.898 31.4628 115.121 31.3884C115.344 31.2397 115.641 30.9422 115.641 30.4215C115.641 29.6033 115.195 29.0826 113.634 29.0826C112.816 29.0826 112.072 29.3802 112.072 29.3802L112.295 30.0496C112.295 30.0496 112.964 29.7521 113.708 29.7521C114.526 29.7521 114.898 29.9752 114.898 30.4959C114.898 31.2397 114.451 31.4628 113.559 31.4628H112.667V32.1322H113.559C114.526 32.1322 115.121 32.281 115.121 33.0992C115.121 33.6198 114.675 34.0661 113.634 34.0661C112.741 34.0661 112.221 33.843 112.221 33.843L112.072 34.438C112.072 34.438 112.667 34.7355 113.708 34.7355C115.269 34.5868 115.715 33.6942 115.715 32.9504ZM126.05 34.438V29.157H125.753C125.53 29.157 125.455 29.157 125.381 29.3058C125.307 29.4545 125.307 29.5289 125.158 29.5289C125.084 29.5289 125.009 29.5289 124.935 29.4545C124.637 29.2314 124.117 29.0826 123.671 29.0826C122.556 29.0826 121.515 29.9752 121.515 31.8347C121.515 33.7686 122.481 34.5868 123.671 34.5868C124.117 34.5868 124.637 34.438 124.935 34.2149C125.009 34.1405 125.084 34.1405 125.158 34.1405C125.232 34.1405 125.307 34.2149 125.381 34.3636C125.455 34.438 125.53 34.5124 125.753 34.5124H126.05V34.438ZM125.307 33.2479C125.307 33.3967 125.307 33.3967 125.158 33.4711C125.009 33.6198 124.637 33.843 123.968 33.843C122.927 33.843 122.407 33.0992 122.407 31.7603C122.407 30.1983 123.15 29.6777 124.043 29.6777C124.638 29.6777 125.084 29.9752 125.232 30.0496C125.381 30.124 125.381 30.1983 125.381 30.2727V33.2479H125.307ZM135.195 29.157H132.37V34.2149C132.37 34.3636 132.444 34.438 132.593 34.438H133.113V29.8264H135.195V29.157ZM145.233 31.8347C145.233 30.0496 144.415 29.0826 142.779 29.0826C141.143 29.0826 140.325 30.0496 140.325 31.8347C140.325 33.6198 141.143 34.5868 142.779 34.5868C144.415 34.5868 145.233 33.6198 145.233 31.8347ZM144.415 31.8347C144.415 33.2479 143.894 33.9917 142.779 33.9917C141.664 33.9917 141.143 33.2479 141.143 31.8347C141.143 30.4215 141.664 29.6777 142.779 29.6777C143.894 29.6777 144.415 30.4215 144.415 31.8347ZM151.998 36.2975V34.438C151.998 34.2893 151.998 34.2149 152.073 34.2149C152.147 34.2149 152.147 34.2149 152.222 34.2893C152.593 34.438 152.965 34.6612 153.56 34.6612C154.675 34.6612 155.716 33.7686 155.716 31.9091C155.716 29.9752 154.749 29.157 153.56 29.157C153.114 29.157 152.593 29.3058 152.296 29.5289C152.222 29.6033 152.147 29.6033 152.073 29.6033C151.998 29.6033 151.924 29.5289 151.85 29.3802C151.775 29.3058 151.701 29.2314 151.478 29.2314H151.181V36.0744C151.181 36.2231 151.255 36.2975 151.404 36.2975H151.998ZM151.998 30.3471C151.998 30.1983 151.998 30.1983 152.147 30.124C152.296 29.9752 152.668 29.7521 153.337 29.7521C154.378 29.7521 154.898 30.4959 154.898 31.8347C154.898 33.3967 154.155 33.9174 153.262 33.9174C152.668 33.9174 152.222 33.6198 152.073 33.5455C151.924 33.4711 151.924 33.3967 151.924 33.3223V30.3471H151.998ZM166.348 31.8347C166.348 30.0496 165.53 29.0826 163.895 29.0826C162.333 29.0826 161.441 30.0496 161.441 31.8347C161.441 33.6198 162.259 34.5868 163.895 34.5868C165.53 34.5868 166.348 33.6198 166.348 31.8347ZM165.53 31.8347C165.53 33.2479 165.01 33.9917 163.895 33.9917C162.779 33.9917 162.259 33.2479 162.259 31.8347C162.259 30.4215 162.779 29.6777 163.895 29.6777C165.01 29.6777 165.53 30.4215 165.53 31.8347ZM177.426 35.5537V33.9917C177.426 33.843 177.352 33.7686 177.203 33.7686H176.757V29.4545C176.757 29.3058 176.683 29.2314 176.534 29.2314H174.081C173.783 31.7603 172.594 33.7686 172.594 33.7686H171.999V35.3306C171.999 35.4793 172.073 35.5537 172.222 35.5537H172.668V34.5124H176.683V35.3306C176.683 35.4793 176.757 35.5537 176.906 35.5537H177.426ZM175.939 33.7686H173.411C173.411 33.7686 174.378 31.9091 174.675 29.8264H175.939V33.7686ZM187.538 34.438V29.3802C187.538 29.2314 187.464 29.157 187.315 29.157H186.795V31.3884H183.969V29.3802C183.969 29.2314 183.895 29.157 183.746 29.157H183.226V34.2149C183.226 34.3636 183.3 34.438 183.449 34.438H183.969V32.0579H186.795V34.2149C186.795 34.3636 186.869 34.438 187.018 34.438H187.538ZM199.211 34.438V29.3802C199.211 29.2314 199.137 29.157 198.988 29.157H198.468V34.2149C198.468 34.3636 198.542 34.438 198.691 34.438H199.211ZM197.798 32.876C197.798 31.6116 196.832 31.4628 195.865 31.4628H194.676V29.4545C194.676 29.3058 194.601 29.2314 194.453 29.2314H193.932V34.2149C193.932 34.3636 194.007 34.438 194.155 34.438C194.378 34.438 194.899 34.438 195.642 34.438C197.204 34.5124 197.798 33.9917 197.798 32.876ZM196.981 32.9504C196.981 33.7686 196.534 33.843 195.642 33.843C195.27 33.843 194.824 33.843 194.601 33.843V32.0579H195.791C196.46 32.0579 196.981 32.1322 196.981 32.9504ZM210.066 34.438V29.3802C210.066 29.2314 209.992 29.157 209.843 29.157H209.1L206.274 33.5455V29.3802C206.274 29.2314 206.2 29.157 206.051 29.157H205.531V34.2149C205.531 34.3636 205.605 34.438 205.754 34.438H206.423L209.248 30.0496V34.2149C209.248 34.3636 209.323 34.438 209.471 34.438H210.066ZM208.951 27.2975C208.802 27.2975 208.728 27.3719 208.654 27.4463C208.356 27.8182 208.133 27.8182 207.91 27.8182C207.687 27.8182 207.464 27.7438 207.167 27.4463C207.018 27.2975 207.018 27.2975 206.869 27.2975H206.349C206.572 28.0413 207.092 28.4876 207.836 28.4876C208.505 28.4876 209.174 27.9669 209.397 27.2975H208.951ZM223.598 34.438L221.442 31.686L223.226 29.2314H222.483C222.334 29.2314 222.26 29.3058 222.185 29.4545L220.773 31.4628H219.955V29.5289C219.955 29.3802 219.88 29.3058 219.732 29.3058H219.211V34.2149C219.211 34.3636 219.286 34.438 219.434 34.438H219.955V31.9835H220.773L222.483 34.2893C222.631 34.438 222.706 34.5124 222.854 34.5124H223.598V34.438ZM233.264 34.438V29.3802C233.264 29.2314 233.189 29.157 233.04 29.157H229.769C229.769 29.157 229.769 31.6116 229.62 33.0992C229.546 33.6198 229.546 33.843 229.026 33.843C228.803 33.843 228.654 33.843 228.654 33.843L228.579 34.3636C228.579 34.3636 228.951 34.438 229.323 34.438C230.141 34.438 230.29 33.9174 230.364 33.1736C230.513 32.0579 230.513 29.7521 230.513 29.7521H232.52V34.2149C232.52 34.3636 232.594 34.438 232.743 34.438H233.264ZM242.929 34.8843C242.929 35.7769 242.334 36.0744 241.665 36.0744C240.847 36.0744 240.401 35.405 240.401 35.405L239.955 35.7769C239.955 35.7769 240.476 36.7438 241.665 36.7438C242.78 36.7438 243.598 36.2975 243.598 34.438V29.3802C243.598 29.2314 243.524 29.157 243.375 29.157H242.855V33.2479C242.855 33.3967 242.855 33.3967 242.706 33.4711C242.557 33.6198 242.111 33.843 241.442 33.843C240.476 33.843 240.178 33.4711 240.178 32.5785V29.3802C240.178 29.2314 240.104 29.157 239.955 29.157H239.435V32.8017C239.435 33.9917 240.029 34.5868 241.293 34.5868C241.814 34.5868 242.26 34.438 242.632 34.2149C242.706 34.1405 242.78 34.1405 242.78 34.1405C242.855 34.1405 242.855 34.2149 242.855 34.3636V34.8843H242.929ZM254.528 31.8347C254.528 30.0496 253.71 29.157 252.149 29.157C251.554 29.157 250.885 29.3058 250.587 29.8264C250.662 28.6364 251.331 28.3388 252.372 28.1901C253.561 28.0413 253.933 27.7438 253.933 27.2231C253.933 27.0744 253.859 27 253.71 27H253.264C253.189 27.2975 253.189 27.4463 252.074 27.595C250.141 27.8182 249.621 29.2314 249.621 31.3884C249.621 33.3223 250.067 34.5124 252.074 34.5124C253.71 34.5868 254.528 33.6942 254.528 31.8347ZM253.71 31.8347C253.71 33.2479 253.189 33.9174 252.074 33.9174C250.959 33.9174 250.439 33.2479 250.439 31.8347C250.439 30.4215 250.959 29.8264 252.074 29.8264C253.189 29.8264 253.71 30.4959 253.71 31.8347Z" fill="#4A4949"/>
<path fill-rule="evenodd" clip-rule="evenodd" d="M114.229 38.083C116.31 38.083 117.946 38.6037 118.987 39.7194C120.028 40.8351 120.548 42.3971 120.548 44.4797C120.548 45.4466 120.4 46.1161 120.028 46.488C119.656 46.8599 119.136 47.0086 118.541 47.0086H111.552C111.552 47.6037 111.701 48.1243 111.849 48.4962C111.998 48.8681 112.221 49.24 112.519 49.4632C112.816 49.6863 113.113 49.9095 113.559 49.9838C113.931 50.0582 114.377 50.1326 114.823 50.1326C115.344 50.1326 115.864 50.0582 116.459 49.9095C116.98 49.7607 117.5 49.6119 117.946 49.3888C118.169 49.3144 118.318 49.3144 118.392 49.3144C118.467 49.3144 118.541 49.4632 118.615 49.6119L119.508 51.6202C119.582 51.769 119.582 51.9177 119.582 51.9921C119.508 52.0665 119.433 52.2152 119.284 52.2896C118.615 52.7359 117.872 53.0334 116.98 53.2566C116.087 53.4797 115.27 53.5541 114.526 53.5541C112.147 53.5541 110.362 52.959 109.247 51.6946C108.132 50.5045 107.537 48.5706 107.537 45.8929C107.537 44.6285 107.686 43.5128 107.983 42.5458C108.281 41.5789 108.727 40.7607 109.322 40.0913C109.916 39.4219 110.585 38.9012 111.403 38.5293C112.296 38.2318 113.188 38.083 114.229 38.083ZM114.303 41.4301C113.559 41.4301 112.965 41.7276 112.519 42.2483C112.072 42.769 111.775 43.5128 111.701 44.3309H116.757C116.757 43.8847 116.682 43.5128 116.608 43.1409C116.534 42.769 116.385 42.4714 116.236 42.2483C116.087 42.0252 115.79 41.802 115.493 41.6533C115.195 41.5045 114.823 41.4301 114.303 41.4301Z" fill="#4A4949"/>
<path fill-rule="evenodd" clip-rule="evenodd" d="M128.95 49.9095C129.545 49.9095 130.065 49.8351 130.66 49.6863C131.181 49.5376 131.701 49.3888 132.073 49.24C132.296 49.1657 132.444 49.0913 132.519 49.1657C132.593 49.1657 132.668 49.3144 132.742 49.5376L133.485 51.6202C133.56 51.8433 133.634 51.9921 133.634 52.0665C133.634 52.2152 133.485 52.2896 133.337 52.4384C132.519 52.8847 131.701 53.1822 130.809 53.3309C129.917 53.4797 129.099 53.5541 128.355 53.5541C126.199 53.5541 124.563 52.8847 123.522 51.6202C122.407 50.3557 121.887 48.4219 121.887 45.8929C121.887 44.7028 122.035 43.5871 122.333 42.6202C122.63 41.6533 123.076 40.8351 123.671 40.1657C124.266 39.4962 124.935 38.9756 125.827 38.6037C126.645 38.2318 127.612 38.083 128.653 38.083C129.396 38.083 130.14 38.1574 130.883 38.3062C131.627 38.4549 132.296 38.6781 132.891 39.05C133.114 39.1987 133.262 39.2731 133.262 39.3475C133.262 39.4219 133.262 39.5706 133.188 39.7938L132.444 41.9508C132.37 42.1739 132.221 42.2483 132.147 42.3227C132.073 42.3227 131.85 42.3227 131.627 42.2483C131.181 42.0995 130.66 41.9508 130.214 41.8764C129.768 41.802 129.322 41.7276 128.876 41.7276C128.355 41.7276 127.909 41.8764 127.537 42.0995C127.166 42.3227 126.868 42.6202 126.645 42.9921C126.422 43.364 126.273 43.8103 126.125 44.3309C126.05 44.8516 125.976 45.3723 125.976 45.8929C125.976 46.488 126.05 47.0086 126.125 47.5293C126.199 48.05 126.348 48.4219 126.645 48.7938C126.868 49.1657 127.166 49.4632 127.612 49.6119C127.835 49.7607 128.355 49.9095 128.95 49.9095Z" fill="#4A4949"/>
<path fill-rule="evenodd" clip-rule="evenodd" d="M141.887 41.7275V52.6614C141.887 52.8845 141.812 53.0333 141.738 53.1077C141.664 53.182 141.515 53.182 141.218 53.182H138.541C138.095 53.182 137.946 52.9589 137.946 52.587V41.7275H134.08C133.708 41.7275 133.56 41.5043 133.56 41.1324V39.0498C133.56 38.7523 133.56 38.6035 133.634 38.5291C133.708 38.4548 133.857 38.3804 134.08 38.3804H145.827C146.05 38.3804 146.199 38.4548 146.274 38.5291C146.348 38.6035 146.348 38.7523 146.348 39.0498V41.1324C146.348 41.5787 146.199 41.7275 145.827 41.7275H141.887Z" fill="#4A4949"/>
<path fill-rule="evenodd" clip-rule="evenodd" d="M147.314 38.901C147.314 38.6035 147.463 38.4548 147.835 38.4548H150.735C150.958 38.4548 151.106 38.4548 151.181 38.5291C151.255 38.6035 151.255 38.6779 151.255 38.901V47.5291H151.404C151.775 46.9341 151.999 46.4134 152.222 46.0415C152.445 45.6696 152.668 45.3721 152.742 45.0746C152.891 44.8514 153.039 44.6283 153.114 44.4052C153.188 44.2564 153.337 44.0333 153.411 43.8845C153.783 43.3638 154.155 42.6944 154.601 41.9506C155.047 41.2068 155.567 40.3143 156.162 39.3473C156.311 39.1242 156.385 38.9754 156.534 38.901C156.608 38.7523 156.757 38.6779 156.906 38.6035C157.054 38.5291 157.129 38.4548 157.277 38.4548C157.426 38.4548 157.649 38.3804 157.872 38.3804H159.211C159.731 38.3804 160.103 38.4548 160.326 38.6779C160.549 38.901 160.698 39.3473 160.698 39.9424V52.8101C160.698 53.0333 160.698 53.1076 160.623 53.182C160.549 53.2564 160.4 53.2564 160.251 53.2564H157.352C157.129 53.2564 156.98 53.2564 156.98 53.182C156.906 53.1076 156.906 53.0333 156.906 52.8101V44.3308H156.757C156.311 45.0002 155.939 45.6696 155.567 46.2647C155.196 46.9341 154.824 47.5291 154.378 48.1986C153.932 48.868 153.56 49.5374 153.114 50.2068C152.668 50.8762 152.296 51.5457 151.85 52.2151C151.627 52.587 151.329 52.8845 151.181 52.9589C150.958 53.1076 150.66 53.1076 150.214 53.1076H148.95C148.281 53.1076 147.909 52.9589 147.686 52.7357C147.463 52.4382 147.389 52.0663 147.389 51.5457V38.901H147.314Z" fill="#4A4949"/>
<path fill-rule="evenodd" clip-rule="evenodd" d="M174.007 45.149C174.824 45.5209 175.419 45.9671 175.717 46.6366C176.014 47.306 176.237 47.9754 176.237 48.6448C176.237 49.3143 176.088 49.9093 175.865 50.5043C175.568 51.0994 175.271 51.5457 174.75 51.9919C174.304 52.3638 173.709 52.7357 173.114 52.9589C172.445 53.182 171.776 53.2564 171.033 53.2564H164.787C164.118 53.2564 163.746 53.1076 163.523 52.8845C163.3 52.6614 163.151 52.2895 163.151 51.7688V40.0167C163.151 39.4961 163.226 39.1242 163.449 38.8267C163.672 38.5291 164.044 38.3804 164.713 38.3804H171.033C171.702 38.3804 172.296 38.4548 172.817 38.6035C173.412 38.7523 173.858 38.9754 174.304 39.2729C174.75 39.5705 175.047 39.9424 175.345 40.463C175.568 40.9093 175.717 41.5043 175.717 42.2481C175.717 42.7688 175.568 43.2895 175.345 43.8101C175.047 44.3308 174.676 44.7027 174.155 45.0002V45.149H174.007ZM172.148 48.3473C172.148 47.8267 171.999 47.4548 171.702 47.1572C171.404 46.8597 170.958 46.711 170.438 46.711H167.018V50.0581H170.438C170.809 50.0581 171.033 49.9837 171.33 49.9093C171.553 49.7605 171.702 49.6862 171.85 49.463C171.999 49.3143 172.073 49.0911 172.148 48.9424C172.148 48.7192 172.148 48.4961 172.148 48.3473ZM167.018 44.0333H170.289C170.586 44.0333 170.884 43.9589 171.107 43.7357C171.404 43.5126 171.479 43.2151 171.479 42.7688C171.479 42.4713 171.404 42.1738 171.181 41.9506C170.958 41.7275 170.735 41.5787 170.363 41.5787H167.018V44.0333Z" fill="#4A4949"/>
<path fill-rule="evenodd" clip-rule="evenodd" d="M190.14 51.397C190.14 51.6201 190.14 51.8433 190.066 51.992C189.992 52.1408 189.843 52.2895 189.62 52.4383C189.174 52.6614 188.728 52.8102 188.282 52.959C187.836 53.1077 187.315 53.1821 186.795 53.2565C186.274 53.3309 185.828 53.4052 185.308 53.4052C184.787 53.4796 184.341 53.4796 183.895 53.4796C182.705 53.4796 181.664 53.3309 180.847 53.1077C180.029 52.8846 179.434 52.5127 178.914 52.1408C178.393 51.6945 178.096 51.2482 177.873 50.6532C177.65 50.0581 177.575 49.4631 177.575 48.7937C177.575 48.0499 177.724 47.3804 177.947 46.7854C178.17 46.1904 178.542 45.6697 178.988 45.2234C179.434 44.7771 180.029 44.4052 180.772 44.1821C181.516 43.959 182.334 43.8102 183.3 43.8102H186.274V43.3639C186.274 43.0664 186.274 42.8433 186.2 42.6201C186.125 42.397 186.051 42.1738 185.828 41.9507C185.679 41.8019 185.382 41.6532 185.085 41.5044C184.787 41.3557 184.341 41.3557 183.895 41.3557C183.598 41.3557 183.3 41.3557 183.003 41.43C182.631 41.43 182.334 41.5044 181.962 41.5788C181.59 41.6532 181.293 41.6532 180.921 41.7276C180.624 41.8019 180.326 41.8763 180.029 41.9507C179.806 42.0251 179.657 42.0251 179.508 41.9507C179.434 41.8763 179.36 41.8019 179.285 41.5788L178.839 39.5705C178.765 39.3474 178.765 39.1986 178.839 39.1242C178.914 39.0499 178.988 38.9755 179.137 38.9011C179.954 38.6036 180.772 38.3804 181.739 38.2317C182.631 38.0829 183.523 38.0085 184.415 38.0085C186.349 38.0085 187.836 38.4548 188.728 39.3474C189.62 40.24 190.14 41.5044 190.14 43.2152V51.397ZM186.2 46.5623H184.044C183.821 46.5623 183.523 46.5623 183.226 46.6366C182.928 46.711 182.705 46.7854 182.408 46.9342C182.185 47.0829 181.962 47.3061 181.813 47.5292C181.664 47.8267 181.59 48.1242 181.59 48.5705C181.59 49.24 181.813 49.6862 182.259 49.9837C182.705 50.2813 183.226 50.3556 183.969 50.3556C184.044 50.3556 184.192 50.3556 184.415 50.3556C184.564 50.3556 184.787 50.3556 185.01 50.2813C185.233 50.2813 185.456 50.2069 185.679 50.1325C185.902 50.0581 186.125 50.0581 186.274 49.9837V46.5623H186.2Z" fill="#4A4949"/>
<path fill-rule="evenodd" clip-rule="evenodd" d="M203.598 38.4548C204.267 38.4548 204.639 38.6036 204.862 38.8267C205.085 39.1243 205.233 39.5705 205.233 40.1656V52.7358C205.233 52.959 205.159 53.1077 205.085 53.1821C205.01 53.2565 204.862 53.2565 204.564 53.2565H201.813C201.59 53.2565 201.367 53.1821 201.293 53.1077C201.219 53.0333 201.144 52.8846 201.144 52.6614V41.7276H197.798L197.724 43.2152C197.65 44.8515 197.501 46.2648 197.352 47.4548C197.129 49.24 196.683 51.397 195.122 52.5127C193.263 53.7028 191.479 53.6284 191.256 53.4796C191.181 53.4052 190.958 53.3309 190.958 53.1077V51.0251C190.958 50.5788 190.884 50.2069 191.256 50.1325C191.627 50.2069 192.222 50.2069 192.52 49.9094C192.817 49.6119 193.04 49.24 193.263 48.7193C193.486 48.1986 193.635 47.5292 193.709 46.6366C193.784 45.7441 193.932 44.6284 194.007 43.2152L194.23 40.1656C194.23 39.5705 194.378 39.1243 194.676 38.9011C194.899 38.678 195.345 38.5292 195.94 38.5292H203.598V38.4548Z" fill="#4A4949"/>
<path fill-rule="evenodd" clip-rule="evenodd" d="M209.323 53.2565C208.654 53.2565 208.134 53.1077 207.911 52.8102C207.688 52.5127 207.613 52.1408 207.613 51.6201V38.9755C207.613 38.6036 207.836 38.4548 208.208 38.4548H210.959C211.182 38.4548 211.405 38.4548 211.479 38.5292C211.554 38.6036 211.628 38.7524 211.628 38.9755V43.0664H214.974C216.312 43.0664 217.353 43.2895 218.097 43.6614C218.84 44.0333 219.435 44.4796 219.881 45.0747C220.253 45.5953 220.55 46.1904 220.625 46.7854C220.699 47.3805 220.773 47.8267 220.773 48.1986C220.773 48.9424 220.625 49.6119 220.402 50.2069C220.104 50.8019 219.732 51.397 219.286 51.8433C218.84 52.2895 218.245 52.6614 217.576 52.8846C216.907 53.1821 216.238 53.2565 215.494 53.2565H209.323ZM216.684 48.0499C216.684 47.5292 216.535 47.0829 216.238 46.711C215.941 46.3391 215.42 46.1904 214.825 46.1904H211.628V50.0581H214.825C215.197 50.0581 215.494 49.9838 215.792 49.835C216.015 49.6862 216.238 49.5375 216.387 49.3143C216.535 49.0912 216.61 48.9424 216.684 48.6449C216.684 48.4962 216.684 48.273 216.684 48.0499Z" fill="#4A4949"/>
<path fill-rule="evenodd" clip-rule="evenodd" d="M226.275 52.6615C226.275 52.8846 226.2 53.0334 226.126 53.1077C226.052 53.1821 225.903 53.1821 225.606 53.1821H222.855C222.483 53.1821 222.26 52.959 222.26 52.5871V38.9755C222.26 38.6036 222.483 38.4548 222.855 38.4548H225.606C225.829 38.4548 226.052 38.4548 226.126 38.5292C226.2 38.6036 226.275 38.7524 226.275 38.9755V43.8102H231.331V38.9755C231.331 38.6036 231.554 38.4548 231.925 38.4548H234.676C234.899 38.4548 235.122 38.4548 235.197 38.5292C235.271 38.6036 235.271 38.7524 235.271 38.9755V52.6615C235.271 52.8846 235.271 53.0334 235.197 53.1077C235.122 53.1821 234.974 53.1821 234.676 53.1821H232C231.628 53.1821 231.405 52.959 231.405 52.5871V46.9342H226.349V52.6615H226.275Z" fill="#4A4949"/>
<path fill-rule="evenodd" clip-rule="evenodd" d="M239.36 53.2565C238.691 53.2565 238.171 53.1077 237.948 52.8102C237.725 52.5127 237.65 52.1408 237.65 51.6201V38.9755C237.65 38.6036 237.873 38.4548 238.245 38.4548H240.996C241.219 38.4548 241.442 38.4548 241.517 38.5292C241.591 38.6036 241.591 38.7524 241.591 38.9755V43.0664H244.937C246.275 43.0664 247.316 43.2895 248.059 43.6614C248.803 44.0333 249.398 44.4796 249.844 45.0747C250.216 45.5953 250.513 46.1904 250.587 46.7854C250.662 47.3805 250.736 47.8267 250.736 48.1986C250.736 48.9424 250.587 49.6119 250.364 50.2069C250.067 50.8019 249.695 51.397 249.249 51.8433C248.803 52.2895 248.208 52.6614 247.539 52.8846C246.87 53.1821 246.201 53.2565 245.457 53.2565H239.36ZM246.721 48.0499C246.721 47.5292 246.572 47.0829 246.275 46.711C245.978 46.3391 245.457 46.1904 244.862 46.1904H241.665V50.0581H244.862C245.234 50.0581 245.532 49.9838 245.829 49.835C246.052 49.6862 246.275 49.5375 246.424 49.3143C246.572 49.0912 246.647 48.9424 246.721 48.6449C246.721 48.4962 246.721 48.273 246.721 48.0499ZM256.238 52.6615C256.238 52.8846 256.238 53.0334 256.164 53.1077C256.089 53.1821 255.941 53.1821 255.643 53.1821H252.892C252.52 53.1821 252.297 52.959 252.297 52.5871V38.9755C252.297 38.6036 252.52 38.4548 252.892 38.4548H255.643C255.866 38.4548 256.089 38.4548 256.164 38.5292C256.238 38.6036 256.238 38.7524 256.238 38.9755V52.6615Z" fill="#4A4949"/>
<path fill-rule="evenodd" clip-rule="evenodd" d="M258.617 38.901C258.617 38.6035 258.766 38.4548 259.138 38.4548H262.037C262.26 38.4548 262.409 38.4548 262.483 38.5291C262.558 38.6035 262.558 38.6779 262.558 38.901V47.5291H262.706C263.078 46.9341 263.301 46.4134 263.524 46.0415C263.747 45.6696 263.97 45.3721 264.045 45.0746C264.193 44.8514 264.342 44.6283 264.417 44.4052C264.491 44.2564 264.64 44.0333 264.714 43.8845C265.086 43.3638 265.457 42.6944 265.904 41.9506C266.35 41.2068 266.87 40.3143 267.465 39.3473C267.614 39.1242 267.688 38.9754 267.837 38.901C267.911 38.7523 268.06 38.6779 268.208 38.6035C268.357 38.5291 268.431 38.4548 268.58 38.4548C268.729 38.4548 268.952 38.3804 269.175 38.3804H270.513C271.034 38.3804 271.405 38.4548 271.629 38.6779C271.852 38.901 272 39.3473 272 39.9424V52.8101C272 53.0333 272 53.1076 271.926 53.182C271.852 53.2564 271.703 53.2564 271.554 53.2564H268.655C268.431 53.2564 268.283 53.2564 268.283 53.182C268.208 53.1076 268.208 53.0333 268.208 52.8101V44.3308H268.06C267.614 45.0002 267.242 45.6696 266.87 46.2647C266.498 46.9341 266.127 47.5291 265.68 48.1986C265.234 48.868 264.863 49.5374 264.417 50.2068C263.97 50.8762 263.599 51.5457 263.153 52.2151C262.93 52.587 262.632 52.8845 262.483 52.9589C262.26 53.1076 261.963 53.1076 261.517 53.1076H260.253C259.584 53.1076 259.212 52.9589 258.989 52.7357C258.766 52.4382 258.692 52.0663 258.692 51.5457V38.901H258.617Z" fill="#4A4949"/>
<path fill-rule="evenodd" clip-rule="evenodd" d="M93.7822 31.3143C93.7822 30.9424 94.0053 30.7192 94.377 30.7192H97.3511C97.5741 30.7192 97.7972 30.7936 97.7972 30.868C97.8715 30.9424 97.8715 31.0911 97.8715 31.3143V31.9093C108.578 33.2482 108.578 47.306 101.292 50.6531C100.251 51.0994 99.1355 51.4713 97.8715 51.5457V52.587C97.8715 52.8101 97.8715 52.9589 97.7972 53.0333C97.7228 53.1077 97.5741 53.182 97.3511 53.182H94.377C94.0053 53.182 93.7822 52.9589 93.7822 52.587V31.3143ZM99.9533 36.149C99.4329 35.7771 98.6894 35.5539 97.8715 35.4052V48.1242C98.615 47.9754 99.2842 47.7523 99.879 47.3804C103.225 45.3721 103.225 38.2316 99.9533 36.149Z" fill="#4A4949"/>
<path fill-rule="evenodd" clip-rule="evenodd" d="M97.9459 31.3143C97.9459 30.9424 97.7228 30.7192 97.3511 30.7192H94.377C94.154 30.7192 93.9309 30.7936 93.9309 30.868C93.8566 30.9424 93.8566 31.0911 93.8566 31.3143V31.9093C83.1501 33.2482 83.1501 47.306 90.4365 50.6531C91.4774 51.0994 92.5926 51.4713 93.8566 51.5457V52.587C93.8566 52.8101 93.8566 52.9589 93.9309 53.0333C94.0053 53.1077 94.154 53.182 94.377 53.182H97.3511C97.7228 53.182 97.9459 52.9589 97.9459 52.587V31.3143ZM91.7748 36.149C92.2952 35.7771 93.0387 35.5539 93.8566 35.4052V48.1242C93.1131 47.9754 92.4439 47.7523 91.8491 47.3804C88.5033 45.3721 88.5033 38.2316 91.7748 36.149Z" fill="#4A4949"/>
</g>
<defs>
<clipPath id="clip0">
<rect width="272" height="81" fill="white"/>
</clipPath>
</defs>
</svg>
