<svg width="17" height="15" viewBox="0 0 17 15" fill="none" xmlns="http://www.w3.org/2000/svg">
<path d="M16.304 11.3838C16.2597 11.2589 15.9784 11.0749 15.4601 10.8322C15.3197 10.7557 15.1196 10.6517 14.8607 10.5199C14.6016 10.388 14.3664 10.2665 14.1556 10.1554C13.9443 10.0444 13.7464 9.93682 13.5615 9.83287C13.5319 9.81205 13.4394 9.75142 13.2839 9.65057C13.1283 9.55001 12.9971 9.47538 12.8896 9.42671C12.7822 9.37832 12.6767 9.35397 12.573 9.35397C12.425 9.35397 12.2401 9.45292 12.0181 9.65057C11.7961 9.84848 11.5925 10.0634 11.4075 10.2961C11.2225 10.5287 11.0263 10.7437 10.8192 10.9415C10.6118 11.1394 10.4414 11.2382 10.3083 11.2382C10.2415 11.2382 10.1582 11.2207 10.0584 11.1863C9.95856 11.1516 9.88264 11.1219 9.83052 11.0979C9.77887 11.0735 9.69023 11.025 9.5643 10.9519C9.43813 10.8791 9.36796 10.8391 9.35318 10.8322C8.33904 10.3046 7.46927 9.70085 6.74372 9.02098C6.0184 8.3407 5.37425 7.52542 4.81165 6.57461C4.80426 6.56072 4.7616 6.49476 4.68393 6.37685C4.60614 6.25883 4.5543 6.17566 4.52839 6.12695C4.50249 6.07842 4.47103 6.00725 4.43408 5.91358C4.39713 5.81992 4.37858 5.74189 4.37858 5.67937C4.37858 5.55453 4.4841 5.39483 4.69509 5.2005C4.90605 5.00627 5.1356 4.8223 5.3835 4.64893C5.6316 4.47556 5.86092 4.28465 6.07195 4.07654C6.28291 3.86831 6.38839 3.69491 6.38839 3.55614C6.38839 3.45905 6.36248 3.36006 6.31072 3.25947C6.25891 3.15865 6.17934 3.03564 6.07195 2.88983C5.96453 2.7441 5.89977 2.65744 5.87752 2.62954C5.7666 2.45618 5.65198 2.27056 5.5334 2.07276C5.41481 1.875 5.28537 1.65456 5.14466 1.4117C5.00406 1.16895 4.8931 0.981507 4.81158 0.849667C4.55263 0.363981 4.35649 0.100155 4.2232 0.058663C4.17135 0.0378443 4.09357 0.0273438 3.99003 0.0273438C3.79005 0.0273438 3.52915 0.0619809 3.20715 0.131474C2.88504 0.200858 2.63157 0.273632 2.44648 0.350089C2.07633 0.495748 1.68401 0.91905 1.26941 1.61985C0.891874 2.27205 0.703125 2.91758 0.703125 3.55596C0.703125 3.74318 0.716076 3.92534 0.741979 4.10246C0.767882 4.2794 0.814165 4.47895 0.880867 4.70107C0.947453 4.92311 1.00116 5.08805 1.04177 5.19547C1.08241 5.30295 1.15829 5.4955 1.26937 5.77318C1.3803 6.05078 1.447 6.22073 1.46921 6.28318C1.72827 6.96331 2.03549 7.57048 2.39078 8.10488C2.97535 8.99312 3.77309 9.91108 4.78353 10.8584C5.79402 11.8056 6.77304 12.5534 7.72064 13.1016C8.29062 13.4347 8.93854 13.7226 9.66394 13.9657C9.7306 13.9864 9.91188 14.0488 10.2079 14.1531C10.504 14.2572 10.7095 14.3283 10.8242 14.3665C10.9389 14.4047 11.1149 14.4551 11.3515 14.5176C11.5887 14.5801 11.8014 14.6235 11.9901 14.648C12.179 14.6719 12.3733 14.6843 12.5731 14.6843C13.254 14.6843 13.9427 14.5072 14.6385 14.1534C15.386 13.7648 15.8374 13.397 15.9929 13.0498C16.0746 12.8764 16.1521 12.6387 16.2261 12.3368C16.3003 12.035 16.3372 11.7904 16.3372 11.603C16.3374 11.5055 16.3263 11.4328 16.304 11.3838Z" fill="#4A4949"/>
</svg>
