<svg width="23" height="20" viewBox="0 0 23 20" fill="none" xmlns="http://www.w3.org/2000/svg">
<path d="M22.3673 15.4963C22.305 15.3259 21.9091 15.0748 21.1798 14.7436C20.9822 14.6392 20.7007 14.4974 20.3364 14.3174C19.9718 14.1375 19.6408 13.9717 19.3441 13.8201C19.0469 13.6686 18.7683 13.5219 18.5081 13.38C18.4665 13.3516 18.3363 13.2689 18.1175 13.1313C17.8986 12.9941 17.7139 12.8922 17.5626 12.8258C17.4116 12.7598 17.263 12.7265 17.1172 12.7265C16.9089 12.7265 16.6487 12.8616 16.3363 13.1313C16.0239 13.4013 15.7373 13.6947 15.477 14.0122C15.2167 14.3295 14.9406 14.6229 14.6492 14.8928C14.3574 15.1628 14.1176 15.2976 13.9303 15.2976C13.8363 15.2976 13.7191 15.2738 13.5786 15.2268C13.4381 15.1795 13.3313 15.1389 13.258 15.1063C13.1853 15.0729 13.0606 15.0068 12.8833 14.9071C12.7058 14.8076 12.6071 14.7531 12.5863 14.7436C11.1592 14.0238 9.93526 13.1999 8.91427 12.2722C7.89361 11.3439 6.98718 10.2314 6.19551 8.934C6.18511 8.91505 6.12507 8.82505 6.01578 8.66415C5.90632 8.50311 5.83336 8.38962 5.79691 8.32316C5.76046 8.25694 5.71619 8.15982 5.66419 8.03201C5.6122 7.9042 5.58609 7.79773 5.58609 7.71241C5.58609 7.54206 5.73457 7.32415 6.03148 7.05897C6.32834 6.79395 6.65136 6.5429 7.0002 6.30633C7.34933 6.06977 7.67201 5.80927 7.96898 5.52529C8.26583 5.24116 8.41426 5.00454 8.41426 4.81519C8.41426 4.6827 8.37781 4.54762 8.30496 4.41036C8.23206 4.2728 8.12009 4.10494 7.96898 3.90598C7.81781 3.70712 7.72669 3.58886 7.69538 3.5508C7.53929 3.31424 7.378 3.06095 7.21113 2.79105C7.04426 2.5212 6.86212 2.2204 6.66411 1.88901C6.46626 1.55777 6.31011 1.30199 6.1954 1.12209C5.83101 0.459354 5.55501 0.0993535 5.36745 0.0427364C5.29449 0.0143284 5.18503 0 5.03934 0C4.75792 0 4.39079 0.0472638 3.93768 0.14209C3.48441 0.236767 3.12773 0.33607 2.86728 0.440399C2.34641 0.639156 1.79435 1.21677 1.21093 2.17304C0.679667 3.06299 0.414062 3.94384 0.414062 4.81494C0.414062 5.07041 0.432288 5.31897 0.468738 5.56066C0.505188 5.8021 0.570316 6.07439 0.664178 6.37748C0.757876 6.68046 0.833458 6.90554 0.890596 7.05211C0.947788 7.19877 1.05457 7.46151 1.21088 7.84042C1.36696 8.21922 1.46083 8.45112 1.49208 8.53634C1.85663 9.4644 2.28894 10.2929 2.7889 11.0221C3.61149 12.2342 4.73406 13.4867 6.15594 14.7794C7.57788 16.0719 8.95554 17.0923 10.289 17.8404C11.091 18.2948 12.0028 18.6878 13.0236 19.0194C13.1174 19.0477 13.3725 19.1328 13.789 19.2752C14.2057 19.4172 14.4949 19.5142 14.6562 19.5663C14.8176 19.6185 15.0653 19.6872 15.3983 19.7725C15.732 19.8579 16.0313 19.9171 16.2969 19.9504C16.5627 19.9831 16.8362 20 17.1172 20C18.0755 20 19.0445 19.7584 20.0237 19.2755C21.0755 18.7454 21.7108 18.2434 21.9295 17.7696C22.0446 17.5331 22.1535 17.2087 22.2577 16.7967C22.3622 16.3849 22.4141 16.0512 22.4141 15.7954C22.4144 15.6624 22.3987 15.5632 22.3673 15.4963Z" fill="#F47D39"/>
</svg>
