<svg width="70" height="62" viewBox="0 0 70 62" fill="none" xmlns="http://www.w3.org/2000/svg">
<g clip-path="url(#clip0)">
<path d="M1.32079 30.4076C1.45287 30.1444 1.45287 30.0127 1.58494 29.7495C2.24532 28.4331 3.30192 27.9066 4.62268 27.9066C10.9623 27.9066 17.1698 27.9066 23.5095 27.9066C23.9057 27.9066 24.1698 27.9066 24.5661 28.0382C24.6982 28.0382 24.6982 28.0382 24.8302 28.0382C25.3585 28.4331 25.8868 28.1698 26.151 27.7749C27.2076 26.3269 28.3963 25.0106 29.4529 23.431C31.3019 20.535 33.0189 17.3758 34.7359 14.4798C35.1321 13.8216 35.2642 13.1635 35.2642 12.3737C35.1321 10.1359 35.1321 7.89807 35.1321 5.52865C35.1321 3.94903 35.9246 2.76431 37.2453 2.10614C39.3585 1.05306 41.6038 0.921427 43.717 1.97451C44.9057 2.50104 45.5661 3.29085 46.0944 4.47557C46.8868 6.58172 47.6793 8.55625 48.3397 10.6624C49.1321 13.0318 49.1321 15.2696 48.6038 17.639C48.2076 19.3503 47.9434 21.1932 47.6793 22.9044C47.5472 23.5626 47.5472 23.5626 48.2076 23.5626C53.0944 23.5626 57.8491 23.5626 62.7359 23.5626C63.6604 23.5626 64.5849 23.6943 65.3774 23.9575C67.0944 24.4841 68.0189 25.8004 68.4151 27.5117C68.4151 27.7749 68.5472 27.9066 68.5472 28.1698C68.5472 28.828 68.5472 29.3545 68.5472 30.0127L68.4151 30.1444C68.151 31.4607 67.6227 32.6454 66.8302 33.5669C66.6982 33.6985 66.6982 33.9618 66.8302 34.0934C66.9623 34.8832 67.2265 35.673 67.2265 36.4628C67.2265 38.1741 66.6982 39.6221 65.6415 40.9384C65.3774 41.2017 65.3774 41.465 65.5095 41.7282C65.6416 42.3864 65.9057 42.9129 65.9057 43.5711C66.0378 45.414 65.3774 46.9936 64.3208 48.4416C64.1887 48.5732 64.0566 48.8365 64.1887 48.9681C64.5849 50.0212 64.5849 51.0743 64.5849 52.1274C64.3208 55.0233 62.6038 57.1295 59.8302 58.0509C58.3774 58.4458 57.0566 58.5775 55.6038 58.5775C47.2831 58.5775 39.0944 58.5775 30.7736 58.5775C28.9246 58.5775 27.2076 58.1826 25.6227 57.1295C25.3585 56.8662 24.8302 56.8662 24.434 56.7346C24.434 57.1295 24.434 57.3928 24.434 57.656C24.3019 59.3673 23.2453 60.552 21.5283 60.552C15.717 60.552 9.77362 60.552 3.9623 60.552C3.16985 60.552 2.3774 60.2887 1.84909 59.6306C1.58494 59.2356 1.32079 58.7091 1.05664 58.3142C1.32079 49.0998 1.32079 39.7537 1.32079 30.4076Z" stroke="#F06838" stroke-width="3" stroke-miterlimit="10" stroke-linecap="round" stroke-linejoin="round"/>
<path d="M23.5098 28.0382L24.6984 57.7877" stroke="#F06838" stroke-width="3" stroke-miterlimit="10" stroke-linecap="round" stroke-linejoin="round"/>
<path d="M14 55C16.2091 55 18 53.2091 18 51C18 48.7909 16.2091 47 14 47C11.7909 47 10 48.7909 10 51C10 53.2091 11.7909 55 14 55Z" stroke="#F47D39" stroke-width="3" stroke-miterlimit="10" stroke-linecap="round" stroke-linejoin="round"/>
<path d="M66.9626 33.5669H52.5664" stroke="#F06838" stroke-width="3" stroke-miterlimit="10" stroke-linecap="round" stroke-linejoin="round"/>
<path d="M65.1127 41.7283H56.2637" stroke="#F06838" stroke-width="3" stroke-miterlimit="10" stroke-linecap="round" stroke-linejoin="round"/>
<path d="M63.2642 49.0997H58.6416" stroke="#F06838" stroke-width="3" stroke-miterlimit="10" stroke-linecap="round" stroke-linejoin="round"/>
</g>
<defs>
<clipPath id="clip0">
<rect width="70" height="62" fill="white"/>
</clipPath>
</defs>
</svg>
