<svg width="58" height="65" viewBox="0 0 58 65" fill="none" xmlns="http://www.w3.org/2000/svg">
<path d="M27.195 35.9369C32.2458 35.9369 36.3403 31.8336 36.3403 26.7718C36.3403 21.7101 32.2458 17.6067 27.195 17.6067C22.1443 17.6067 18.0498 21.7101 18.0498 26.7718C18.0498 31.8336 22.1443 35.9369 27.195 35.9369Z" stroke="#F06838" stroke-width="3" stroke-miterlimit="10" stroke-linecap="round" stroke-linejoin="round"/>
<path d="M49.5765 37.0223C50.7798 33.7663 51.6221 30.3897 51.6221 26.7719C51.6221 13.0242 40.4312 1.80896 26.7134 1.80896C12.9956 1.80896 1.80469 13.0242 1.80469 26.7719C1.80469 44.9815 26.7134 63.1912 26.7134 63.1912C26.7134 63.1912 30.0827 61.0205 34.4146 57.1615" stroke="#F06838" stroke-width="3" stroke-miterlimit="10" stroke-linecap="round" stroke-linejoin="round"/>
<path d="M44.0414 60.8998C50.8201 60.8998 56.3153 55.3927 56.3153 48.5993C56.3153 41.8059 50.8201 36.2987 44.0414 36.2987C37.2628 36.2987 31.7676 41.8059 31.7676 48.5993C31.7676 55.3927 37.2628 60.8998 44.0414 60.8998Z" stroke="#F47D39" stroke-width="3" stroke-miterlimit="10" stroke-linecap="round" stroke-linejoin="round"/>
<path d="M54.27 41.7255L43.6808 52.2171L39.2285 47.9963" stroke="#F47D39" stroke-width="3" stroke-miterlimit="10" stroke-linecap="round" stroke-linejoin="round"/>
</svg>
