<svg width="60" height="63" viewBox="0 0 60 63" fill="none" xmlns="http://www.w3.org/2000/svg">
<g clip-path="url(#clip0)">
<path d="M30.0615 42.9041H32.2792L34.004 46.2328L32.772 50.0547L34.1272 61.2739" stroke="#F47D39" stroke-width="3" stroke-miterlimit="10" stroke-linecap="round" stroke-linejoin="round"/>
<path d="M31.0473 42.9041H28.8297L27.1048 46.2328L28.2136 50.0547L26.8584 61.2739" stroke="#F47D39" stroke-width="3" stroke-miterlimit="10" stroke-linecap="round" stroke-linejoin="round"/>
<path fill-rule="evenodd" clip-rule="evenodd" d="M32.6493 1.23285C32.7725 1.23285 33.0189 1.23285 33.1421 1.23285C33.1421 1.47942 33.0189 1.84929 33.0189 2.09586C32.6493 3.08216 32.8957 3.82189 33.8813 4.31504C34.2509 4.56162 34.7437 4.6849 35.1133 4.80819C36.3454 5.17805 37.5774 5.42463 38.8094 5.91778C41.5199 6.90408 43.2447 8.87668 43.4911 11.7123C43.6143 13.0685 43.6143 14.4246 43.6143 15.7808C43.6143 17.6301 43.6143 19.4794 43.6143 21.3287C43.6143 21.8219 43.7376 22.315 44.2304 22.5616C44.6 22.6849 44.7232 23.1781 44.6 23.5479C44.2304 25.5205 43.8608 27.4931 43.3679 29.4657C43.2447 30.0822 38.3166 37.3561 38.4398 37.8493C38.563 39.0822 39.3022 40.0685 39.4254 41.3013C39.4254 41.6712 41.0271 42.0411 41.5199 42.2876C42.0127 42.5342 42.3823 42.9041 42.5055 43.5205C42.7519 44.2602 42.9983 45 43.2447 45.6164C43.3679 45.863 43.6143 46.1096 43.8608 46.2329C45.7088 47.2192 47.5569 48.2055 49.2817 49.0685C52.2386 50.5479 55.0723 52.1507 58.0291 53.6301C58.7684 54 59.0148 54.4931 59.0148 55.3561C59.0148 56.9589 59.0148 58.4383 59.0148 60.0411C59.0148 60.7808 58.8916 61.2739 58.1523 61.6438C47.6801 61.6438 37.331 61.6438 26.8587 61.6438C18.7273 61.6438 10.4727 61.6438 2.34125 61.6438C1.35563 61.3972 1.23242 60.7808 1.23242 60.1644C1.23242 58.5616 1.23242 56.9589 1.23242 55.4794C1.23242 54.7397 1.47883 54.2466 2.21805 53.8767C4.43571 52.7671 6.53016 51.6575 8.62462 50.5479C11.2119 49.1918 13.7992 47.8356 16.3864 46.4794C16.6328 46.3561 16.8792 46.1096 17.0024 45.863C17.2488 45.1233 17.4953 44.3835 17.7417 43.6438C17.8649 43.2739 19.5897 42.7808 19.9593 42.5342C20.3289 42.1644 21.1914 41.9178 21.1914 41.4246C21.3146 40.315 21.9306 39.5753 22.177 38.589C22.3002 37.726 17.3721 31.8082 17.1256 30.8219C16.8792 29.7123 16.5096 28.6027 16.2632 27.3698C16.0168 26.2602 15.7704 25.0274 15.6472 23.9178C15.524 23.5479 15.6472 23.0548 16.0168 22.9315C16.6328 22.6849 16.756 22.1918 16.756 21.5753C16.756 18.6164 16.756 15.6575 16.756 12.6986C16.756 11.9589 16.8792 11.0959 17.1256 10.4794C17.8649 8.50682 19.2201 7.15066 21.0681 6.28764C23.6554 5.05477 26.2427 4.06847 28.83 2.95888C29.9388 2.21915 31.294 1.726 32.6493 1.23285Z" stroke="#F06838" stroke-width="3" stroke-miterlimit="10"/>
</g>
<defs>
<clipPath id="clip0">
<rect width="60" height="63" fill="white"/>
</clipPath>
</defs>
</svg>
