<svg width="69" height="58" viewBox="0 0 69 58" fill="none" xmlns="http://www.w3.org/2000/svg">
<path d="M2.0293 50.784V7.3521C2.0293 4.49294 4.3293 2.04224 7.30577 2.04224H53.1705C56.0116 2.04224 58.4469 4.35679 58.4469 7.3521V11.5728" stroke="#F06838" stroke-width="3" stroke-miterlimit="10"/>
<path d="M66.9704 50.784C66.9704 53.6432 64.6704 56.0939 61.6939 56.0939H7.57628C4.7351 56.0939 2.2998 53.7793 2.2998 50.784V16.7464C2.2998 13.8873 4.5998 11.4366 7.57628 11.4366H61.6939C64.5351 11.4366 66.9704 13.7511 66.9704 16.7464V50.784Z" stroke="#F06838" stroke-width="3" stroke-miterlimit="10"/>
<path d="M7.30577 11.4366C4.46459 11.4366 2.0293 9.2582 2.0293 6.67134C2.0293 4.08449 4.3293 2.04224 7.30577 2.04224" stroke="#F06838" stroke-width="3" stroke-miterlimit="10"/>
<path d="M52.4936 36.0797C55.1836 36.0797 57.3642 33.8853 57.3642 31.1783C57.3642 28.4714 55.1836 26.2769 52.4936 26.2769C49.8037 26.2769 47.623 28.4714 47.623 31.1783C47.623 33.8853 49.8037 36.0797 52.4936 36.0797Z" stroke="#F47D39" stroke-width="3" stroke-miterlimit="10" stroke-linecap="round" stroke-linejoin="round"/>
<path d="M2.43555 45.6104H66.565" stroke="#F06838" stroke-width="3" stroke-miterlimit="10"/>
</svg>
