<svg width="14" height="12" viewBox="0 0 14 12" fill="none" xmlns="http://www.w3.org/2000/svg">
<path d="M7.25117 9.90164C7.11962 10.0328 7.05384 10.0984 6.92229 10.2295C6.52764 10.5574 6.13299 10.9508 5.73833 11.2787C5.54101 11.4754 5.2779 11.4754 5.0148 11.4098C4.7517 11.3443 4.62015 11.1475 4.4886 10.9508C4.35705 10.7541 4.35705 10.5574 4.29127 10.3607C4.02817 9.57377 3.83084 8.78689 3.56774 8C3.50197 7.86885 3.50197 7.73771 3.43619 7.60656C3.43619 7.54098 3.43619 7.54098 3.37041 7.54098C2.64688 7.27869 1.92335 7.08197 1.19982 6.81967C1.06827 6.7541 0.870945 6.68853 0.739394 6.62295C0.542067 6.55738 0.410516 6.36066 0.278965 6.16393C0.0816384 5.77049 0.147414 5.31148 0.476292 5.04918C0.607843 4.91803 0.739394 4.85246 0.93672 4.78689C1.5287 4.52459 2.12068 4.2623 2.71266 4C3.76507 3.54098 4.81748 3.14754 5.80411 2.68852C7.05384 2.16393 8.30358 1.63934 9.55331 1.11475C10.3426 0.786885 11.1977 0.459016 11.987 0.0655738C12.2501 0.0655738 12.4474 0 12.6448 0C13.0394 0 13.4341 0.327869 13.4998 0.721312C13.5656 0.918033 13.4998 1.11475 13.4998 1.31148C13.4341 1.77049 13.3025 2.16393 13.2367 2.62295C13.171 3.08197 13.0394 3.47541 12.9736 3.93443C12.8421 4.45902 12.7763 4.98361 12.6448 5.5082C12.579 6.03279 12.4474 6.4918 12.3817 7.01639C12.2501 7.67213 12.1186 8.2623 11.987 8.91803C11.8555 9.5082 11.7239 10.1639 11.5924 10.7541C11.5924 10.8852 11.5266 10.9508 11.5266 11.082C11.5266 11.2787 11.395 11.4098 11.3293 11.541C11.0662 11.8689 10.6715 12 10.2111 12C10.0795 12 9.94797 11.9344 9.81642 11.8689C9.75064 11.8689 9.75064 11.8033 9.68486 11.8033C8.89556 11.1475 8.10625 10.5574 7.25117 9.90164C7.31695 9.96721 7.31695 9.90164 7.25117 9.90164ZM1.2656 5.70492C1.39715 5.77049 1.46292 5.77049 1.59448 5.83607C2.44956 6.16393 3.37041 6.42623 4.2255 6.7541H4.29127C4.7517 6.4918 5.21213 6.16393 5.67256 5.90164C6.65919 5.2459 7.7116 4.65574 8.69823 4C9.35599 3.60656 9.94797 3.27869 10.5399 2.88525C10.6057 2.81967 10.6715 2.81967 10.7373 2.81967C10.803 2.81967 10.8688 2.81967 10.8688 2.88525C10.8688 2.95082 10.8688 3.01639 10.8688 3.08197L10.803 3.14754C10.6715 3.27869 10.4742 3.40984 10.3426 3.60656C9.61909 4.2623 8.89556 4.98361 8.17203 5.63935C7.38272 6.36066 6.59342 7.08197 5.86988 7.80328L5.80411 7.86885C5.73833 8.13115 5.73833 8.39344 5.67256 8.59017C5.60678 9.04918 5.54101 9.57377 5.40946 10.0328C5.40946 10.0984 5.40946 10.1639 5.40946 10.2295L5.47523 10.1639C6.06721 9.63935 6.65919 9.11475 7.1854 8.59017C7.25117 8.59017 7.25117 8.59017 7.25117 8.59017C7.7116 8.91803 8.10625 9.2459 8.56668 9.57377C9.09289 9.96721 9.68486 10.4262 10.2111 10.8197C10.2768 10.8852 10.3426 10.8852 10.4084 10.8852C10.4742 10.8852 10.5399 10.8197 10.6057 10.7541C10.6057 10.5574 10.6715 10.4262 10.6715 10.2295C10.803 9.5082 10.9346 8.78689 11.0662 8.06557C11.1977 7.27869 11.395 6.55738 11.5266 5.77049C11.6581 5.04918 11.7897 4.2623 11.987 3.54098C12.1186 2.68852 12.3159 1.90164 12.4474 1.04918C12.4474 0.983607 12.4474 0.983607 12.4474 0.918033C8.76401 2.62295 5.0148 4.19672 1.2656 5.70492Z" fill="#58CFF0"/>
</svg>
