<svg width="517" height="185" viewBox="0 0 517 185" fill="none" xmlns="http://www.w3.org/2000/svg">
<path fill-rule="evenodd" clip-rule="evenodd" d="M171.751 145.878H141.582V184.655H99.769V145.878H0.00012207V117.124L87.331 0H132.32L51.3401 111.057H101.092V76.5H141.582V111.057H171.751V145.878ZM516.751 145.878H486.582V184.655H444.769V145.878H345V117.124L432.331 0H477.32L396.34 111.057H446.092V76.5H486.582V111.057H516.751V145.878ZM219.492 172.459C230.901 179.705 243.903 183.328 258.5 183.328C273.097 183.328 286.1 179.705 297.508 172.459C308.917 165.213 317.81 154.765 324.185 141.116C330.728 127.299 334 110.869 334 91.8276C334 72.7862 330.728 56.4409 324.185 42.7917C317.81 28.974 308.917 18.4423 297.508 11.1964C286.1 3.95056 273.097 0.327637 258.5 0.327637C243.903 0.327637 230.901 3.95056 219.492 11.1964C208.083 18.4423 199.107 28.974 192.563 42.7917C186.188 56.4409 183 72.7862 183 91.8276C183 110.869 186.188 127.299 192.563 141.116C199.107 154.765 208.083 165.213 219.492 172.459ZM283.667 134.797C277.627 144.065 269.238 148.699 258.5 148.699C247.93 148.699 239.541 144.065 233.333 134.797C227.293 125.529 224.273 111.206 224.273 91.8276C224.273 72.4492 227.293 58.126 233.333 48.858C239.541 39.5901 247.93 34.9561 258.5 34.9561C269.238 34.9561 277.627 39.5901 283.667 48.858C289.875 58.126 292.978 72.4492 292.978 91.8276C292.978 111.206 289.875 125.529 283.667 134.797Z" fill="url(#paint0_linear)"/>
<defs>
<linearGradient id="paint0_linear" x1="0.00334409" y1="184.659" x2="383.066" y2="-151.737" gradientUnits="userSpaceOnUse">
<stop stop-color="#E84C0A"/>
<stop offset="1" stop-color="#FAB74D"/>
</linearGradient>
</defs>
</svg>
