<svg width="18" height="11" viewBox="0 0 18 11" fill="none" xmlns="http://www.w3.org/2000/svg">
<path d="M16.8519 1.05521C16.9723 0.666237 16.8519 0.369873 16.2777 0.369873H14.4069C13.9254 0.369873 13.7123 0.61993 13.5919 0.897771C13.5919 0.897771 12.638 3.22237 11.2859 4.74124C10.8413 5.17652 10.6468 5.31544 10.406 5.31544C10.2856 5.31544 10.0911 5.17652 10.0911 4.77829V1.05521C10.0911 0.582884 9.98001 0.369873 9.58177 0.369873H6.62739C6.33103 0.369873 6.15506 0.592146 6.15506 0.805157C6.15506 1.2497 6.84967 1.36084 6.89597 2.62965V5.38953C6.89597 6.00079 6.78484 6.11192 6.5533 6.11192C5.92353 6.11192 4.36762 3.7688 3.45074 1.10152C3.26552 0.582885 3.08955 0.369873 2.60796 0.369873H0.727902C0.200004 0.369873 0.0888672 0.61993 0.0888672 0.897771C0.0888672 1.39789 0.727902 3.86141 3.05251 7.12141C4.59915 9.3534 6.78484 10.5574 8.77603 10.5574C9.97075 10.5574 10.1189 10.2888 10.1189 9.82573V8.14016C10.1189 7.61226 10.2301 7.50113 10.6098 7.50113C10.8876 7.50113 11.36 7.64005 12.4713 8.7051C13.7494 9.98317 13.9531 10.5574 14.6755 10.5574H16.5463C17.0835 10.5574 17.3521 10.2888 17.2039 9.7609C17.0372 9.233 16.4259 8.46431 15.6202 7.5567C15.1849 7.04732 14.5273 6.49164 14.3236 6.20454C14.0457 5.8526 14.1291 5.69516 14.3236 5.37101C14.3236 5.37101 16.6111 2.15732 16.8519 1.05521Z" fill="#4A4949"/>
</svg>
