<svg width="14" height="14" viewBox="0 0 14 14" fill="none" xmlns="http://www.w3.org/2000/svg">
<path fill-rule="evenodd" clip-rule="evenodd" d="M7.11301 0.827148C3.72521 0.827148 1.00024 3.47847 1.00024 6.7747C1.00024 7.92122 1.29483 8.92442 1.88401 9.85597L0.779297 13.0089L4.16709 11.934C5.05087 12.4356 6.00829 12.6506 7.11301 12.6506C10.5008 12.6506 13.2258 9.99928 13.2258 6.70305C13.2258 3.47847 10.4272 0.827148 7.11301 0.827148ZM7.11301 11.7191C6.08194 11.7191 5.12452 11.4324 4.31439 10.9308L2.39955 11.5041L2.98873 9.641C2.39955 8.85277 2.03131 7.84956 2.03131 6.7747C2.03131 4.05173 4.31439 1.83035 7.11301 1.83035C9.91162 1.83035 12.1947 4.05173 12.1947 6.7747C12.1947 9.49768 9.91162 11.7191 7.11301 11.7191ZM9.98527 8.13619C9.83797 7.99288 9.02785 7.63459 8.88055 7.56293C8.73326 7.49128 8.65961 7.49128 8.51231 7.63459C8.43867 7.77791 8.07043 8.13619 7.99678 8.20785C7.92313 8.27951 7.77584 8.27951 7.62854 8.20785C7.55489 8.13619 7.03936 7.99288 6.45018 7.41962C6.00829 6.98968 5.7137 6.48807 5.64005 6.34476C5.5664 6.20145 5.64005 6.12979 5.7137 6.05813C5.78735 5.98647 5.93464 5.91482 6.00829 5.7715C6.08194 5.69984 6.08194 5.62819 6.15559 5.55653C6.22923 5.48487 6.15559 5.34156 6.15559 5.2699C6.15559 5.19824 5.86099 4.41001 5.7137 4.12338C5.5664 3.83676 5.49275 3.90841 5.34546 3.90841C5.27181 3.90841 5.12452 3.90841 5.05087 3.90841C4.97722 3.90841 4.75628 3.90841 4.60898 4.05173C4.53533 4.19504 4.09345 4.55333 4.0198 5.2699C4.0198 5.98647 4.53533 6.7747 4.60898 6.84636C4.68263 6.91802 5.64005 8.56614 7.18665 9.21105C8.73326 9.85597 8.73326 9.641 9.02785 9.641C9.32244 9.641 9.98527 9.28271 10.1326 8.92442C10.2799 8.56614 10.2799 8.27951 10.2799 8.20785C10.2062 8.20785 10.1326 8.20785 9.98527 8.13619Z" fill="#43D97D"/>
</svg>
