<svg width="18" height="12" viewBox="0 0 18 12" fill="none" xmlns="http://www.w3.org/2000/svg">
<path d="M16.8011 1.4365C16.341 0.64296 15.8418 0.496998 14.8252 0.441491C13.8097 0.374677 11.2561 0.346924 9.04384 0.346924C6.82733 0.346924 4.27267 0.374677 3.25822 0.440463C2.24378 0.496998 1.74345 0.641932 1.27916 1.4365C0.805329 2.22901 0.561523 3.59407 0.561523 5.9973C0.561523 5.99936 0.561523 6.00039 0.561523 6.00039C0.561523 6.00244 0.561523 6.00347 0.561523 6.00347V6.00553C0.561523 8.39848 0.805329 9.77382 1.27916 10.5581C1.74345 11.3516 2.24272 11.4956 3.25716 11.5624C4.27267 11.6199 6.82733 11.6538 9.04384 11.6538C11.2561 11.6538 13.8097 11.6199 14.8263 11.5634C15.8428 11.4966 16.3421 11.3527 16.8022 10.5591C17.2802 9.77484 17.5219 8.39951 17.5219 6.00655C17.5219 6.00655 17.5219 6.00347 17.5219 6.00141C17.5219 6.00141 17.5219 5.99936 17.5219 5.99833C17.5219 3.59407 17.2802 2.22901 16.8011 1.4365ZM6.92167 9.08409V2.91668L12.2218 6.00039L6.92167 9.08409Z" fill="#4A4949"/>
</svg>
