<svg width="92" height="92" viewBox="0 0 92 92" fill="none" xmlns="http://www.w3.org/2000/svg">
<circle cx="45.8691" cy="46.0793" r="45.5" transform="rotate(-90 45.8691 46.0793)" fill="#F47D39"/>
<path d="M41.8834 30.5793C44.9372 30.5793 47.8659 31.7925 50.0253 33.9518C52.1846 36.1111 53.3977 39.0399 53.3977 42.0936C53.3977 44.7783 52.4716 47.259 50.9296 49.2253C50.7669 49.4328 50.7779 49.7304 50.9644 49.9169C51.0593 50.0118 51.188 50.0651 51.3221 50.0651H51.8123C52.2603 50.0651 52.69 50.243 53.0068 50.5598L60.0406 57.5936C60.7743 58.3274 60.7743 59.517 60.0406 60.2508C59.3068 60.9845 58.1172 60.9845 57.3834 60.2508L50.3496 53.217C50.0328 52.9002 49.8549 52.4705 49.8549 52.0225V51.5323C49.8549 51.3982 49.8015 51.2695 49.7067 51.1746C49.5202 50.9881 49.2226 50.9771 49.0151 51.1398C47.0488 52.6818 44.5681 53.6079 41.8834 53.6079C38.8296 53.6079 35.9009 52.3948 33.7416 50.2355C31.5822 48.0761 30.3691 45.1474 30.3691 42.0936C30.3691 39.0399 31.5822 36.1111 33.7416 33.9518C35.9009 31.7925 38.8296 30.5793 41.8834 30.5793ZM41.8834 34.1222C37.4549 34.1222 33.912 37.6651 33.912 42.0936C33.912 46.5222 37.4549 50.0651 41.8834 50.0651C46.312 50.0651 49.8549 46.5222 49.8549 42.0936C49.8549 37.6651 46.312 34.1222 41.8834 34.1222Z" fill="white"/>
</svg>
